<?xml version="1.0"?><svg xmlns="http://www.w3.org/2000/svg" width="1024" height="1024" viewBox="0 0 1280 1280" version="1.2" baseProfile="tiny-ps"><title>Studentenvereniging Gumbo Millennium</title><defs><g id="b" fill="#006b00" transform="matrix(1.33333 0 0 -1.33333 0 880.58)"><path d="M534.276 471.584c-3.926-.09-4.3-7.352-7.29-7.442-.937 0-1.777.454-1.403 2.994 2.803 19.332 3.365 34.125 7.197 53.183.842 5.719-2.524 10.529-7.852 11.98-1.776-.09-3.925-1.542-3.833-4.264-1.028-22.69-3.739-44.2-4.206-64.437 0-2.632.373-11.98 4.674-11.89 5.048-.271 11.498 11.98 14.488 16.7-.092.545-.934 3.177-1.775 3.177m-433.459 61.531c.28 2.451-5.141 4.084-8.413 3.903-3.46-3.267-2.337-6.807-3.084-12.979-2.244-16.517-5.796-33.67-15.705-48.19 2.898 18.15 4.955 37.482 8.693 54.452.748 3.812-1.682 5.536-5.982 5.446-5.61-.09-6.543-7.986-6.45-13.34 0-3.359-.374-7.534-.281-10.166 0-1.815.28-9.529-1.215-10.527-.187 1.633.655 3.357-1.215 3.357-12.9-.18-17.107-2.45-27.576-2.904-4.861-.18-10.282 1.271-12.807-2.087-1.776-2.45-.56-3.993 2.244-4.992 6.17-2.087 15.61-3.993 25.987-4.175.654-1.996 1.308-5.173 1.122-7.169-1.31-10.528-4.02-22.87-14.396-23.96-7.385-.907-9.161 1.09-14.583 5.627-8.6 7.17-11.03 22.69-11.591 28.68-1.59 17.334-2.711 43.834 14.676 48.644 5.702 1.543 7.104.182 10.376-1.634.468-2.813-.093-2.904-.654-5.264-.748-2.813 1.028-4.265 4.02-4.99 4.113-.999 6.075 7.26 6.075 9.71-5.235 8.35-18.508 8.531-26.173 5.537C-3.972 535.021-.887 505.436 1.45 483.926c4.206-20.964 11.872-40.023 34.493-43.653 8.974-2.087 21.5 7.805 23.277 13.432 3.458 10.618 4.58 18.151 4.486 29.677.28 7.17-1.121 12.524 5.889 11.98.094-8.804-2.15-22.235-2.15-31.947.468-3.539-.934-6.352 3.833-6.806 5.609-.635 4.113 2.904 5.235 7.26 1.495 6.444 3.552 15.338 7.852 20.874 1.589-7.533 2.524-16.517 6.45-24.23 1.683-3.54 3.459-5.356 5.983-6.536.747-.272 3.178 0 2.804 1.09-7.572 19.783-5.141 42.02-1.776 62.348 1.122 5.627 1.028 9.621 2.99 15.701m406.352-2.449c-3.554-3.63-5.235-18.605-12.06-27.318.955 7.99 1.31 14.067 1.31 19.059 0 .363-7.946 9.257-9.629 9.257-1.869 0-3.084-.454-2.991-2.27.094-15.882-1.87-35.123-3.645-48.373-.468-4.084-1.871-9.983-3.179-14.702 0-1.724 0-3.449.093-5.174 2.992-2.45 4.674-7.532 9.536-8.712 2.336.272 2.055 3.993 2.243 7.17.186 3.54 2.056 9.893 2.898 13.16 4.3 15.792 7.852 22.599 11.497 37.21 1.403 1.36 2.244.545 2.057-1.452-2.057-16.79-5.421-33.58-2.711-48.736 2.711-3.811 5.608-9.347 11.03-9.257-.84 18.15-.654 45.56.655 64.527 1.309 9.802-3.459 16.155-7.104 15.61m-364.94-58.991c1.963 17.97 7.478 34.668 12.713 51.095 1.589 2.36 2.992 1.906 2.992-.182.186-16.97-2.992-37.39-6.17-54.907-.374-2.45-1.309-6.08.373-7.714 4.207-4.084 6.451-6.08 11.219-10.89 4.487-2.27 4.579 1.542 4.579 4.083-.373 23.596.281 46.376-.653 70.064-.562 6.534 1.028 10.164-8.226 13.522-6.077 1.725-8.134-8.985-9.816-13.522-2.524-6.625-2.524-11.436-6.263-17.063-1.309 6.172-.094 13.432 1.028 20.602.654 4.356-4.206 10.981-9.441 12.071-8.226-5.355-8.6-18.969-13.928-26.319-.935 9.438 3.365 22.416-5.983 23.687-3.459 0-5.422.272-6.169-3.177.747-23.596 1.682-45.922-4.113-68.793 0-1.089.186-3.086 1.121-3.448 3.179-1.27 5.235-3.903 8.694-3.812 4.673-.908 1.682 4.628 2.524 9.53 1.776 10.527 4.019 28.315 7.291 38.48.561 4.628 5.234 11.798 7.571 17.243.842-17.153-1.869-33.126-4.299-50.006-1.496-9.439 2.243-12.434 9.721-17.244 6.544.091 3.833 11.254 5.235 16.7m420.279 61.987c-3.271-.092-3.085-2.723-3.552-6.444-1.495-12.706-.094-24.868-2.244-37.21-1.028-6.262-5.89-18.878-8.88-13.07-.655 11.98 1.309 21.238 1.869 30.586.468 6.807.56 14.248-1.776 19.33-1.121 2.542-4.954 2.36-6.73-.362-1.962-2.905-1.028-14.067-.561-20.692 3.458-22.327-7.665-53.728.28-55.361 4.02-.817 6.544 4.99 8.88 10.98 1.496 3.903 2.9 8.713 4.769 12.434 1.495-9.53 11.87-28.588 14.769-25.593 2.804 2.36-3.553 8.168-3.646 13.704-1.59 17.516 1.869 41.022 5.89 59.99 1.028 4.81-4.581 11.799-9.068 11.708m-330.727 2.813c-1.683 2.814-5.049 3.63-7.666 3.63-11.03-.091-11.403-18.968-12.338-26.501-1.215-15.61.374-37.391 5.047-49.915 2.244-5.99 5.234-9.53 9.723-10.62 1.963-.543 3.832-.362 4.673.092 5.235 3.267 12.994 22.689 13.834 41.475.468 10.89 1.217 31.039-11.029 36.303-1.963.817-3.459.454-3.459-1.724 0-2.542.747-2.542.747-4.811.093-1.633.374-3.721 0-5.898-1.028-7.443 3.647-13.614 3.647-24.323.092-11.89-2.617-33.217-6.357-32.763-2.525.363-3.27 6.262-3.552 7.714-2.43 12.979-3.646 23.687-2.43 36.847.746 9.257 4.111 22.326 9.16 30.494m407.193-55.907c-2.057 14.431-5.89 46.468-10.096 46.558-7.48 2.36-9.91-28.134-17.294-25.956-2.711 4.991-3.74 25.321-10.47 25.412-6.356-.727-7.291-19.785-12.525-29.496-.375 9.167-1.215 29.405-8.6 31.492-1.31-.09-2.431.181-2.431-1.18.093-4.719 1.869-8.803 2.057-13.43.56-17.79-3.084-32.673-5.421-51.097-.282-2.36-1.03-5.263-.842-7.079 1.682-6.08 9.348-11.707 10.562-7.169 1.403 10.527 7.946 38.48 16.64 60.806 4.486-.09 3.365-14.975 3.458-22.598-.56-12.07-6.17-23.052-7.572-34.76.749-4.81 3.834-5.627 8.787-5.808 8.787-3.63 9.629 62.803 17.388 61.441 7.198 1.271 5.702-42.564 8.413-62.44 2.897-22.598-8.04-45.83-.187-46.103 11.217 1.724 18.04 9.347 18.228 18.695-1.963 24.776-7.198 37.664-10.095 62.712M476.04 524.676c-1.87 3.902-3.459 8.621-7.572 9.892-4.395 1.361-4.395-6.534-6.45-10.709-3.085-6.353-6.45-12.433-10.003-17.698-.373 7.533-.56 13.886-.373 21.782-3.459 3.358-6.45 8.713-10.563 9.62-1.403.363-4.3 1.09-4.3-2.088 0-7.804 2.804-11.889 3.083-18.604.19-4.356.468-11.072.375-14.884-.467-15.247-1.87-24.958-3.645-39.207-.656-5.355 3.738-7.169 6.917-9.075 1.028-.545 3.552-2.995 4.206.726-.373 24.776 8.507 45.015 15.985 61.078.935 2.088 3.927 2.27 3.646-.544a123 123 0 0 0-.84-6.989c-2.619-19.148-2.058-33.67-6.265-51.639-.28-6.262 7.386-13.16 11.03-19.24.936-1.27 2.806-1.362 2.431.997-.56 2.814-1.682 9.167-1.682 13.796 0 21.781.373 42.745 4.113 64.346.654 2.994.561 4.628-.094 8.44"/><path d="M406.8 553.2c1.447 5.88 2.678 12.205 2.309 17.67-.268 7.753-3.475 11.951-6.854 15.65l123.824-33.32zm-14.892 4.33a1325 1325 0 0 1-.171-4.33h-7.344c1.078 12.305 2.32 24.43 3.87 35.64q.174.71.27 1.372l5.736-1.543c-.446-10.12-1.655-17.593-2.361-31.14m-19.416-4.329h-13.16c-.755.812-1.708 1.455-2.945 1.88-6.905 2.104-8.917 3.47-9.107-1.88h-5.437c.103.985.148 1.892.148 2.696-.093 5.173-4.861 6.534-8.132 4.9-2.892-1.403-6.05-3.919-9.314-7.596H305.02c0 .265-.047.528-.047.79-.561 7.442-2.99 15.972-11.404 10.71-3.416-2.099-6.45-6.177-9.541-11.5h-94.502c.899 9.401 2.206 19.12 3.554 25.84-4.301 5.807-10.096 11.252-14.584 15.79-1.59 1.633-4.205.454-4.02-1.089 1.649-12.496 1.822-26.617 1.333-40.54h-37.543v104.357l235.379-63.338c.06-13.132-.462-26.965-1.154-41.02m-63.686-26.437c-.163 9.582-2.46 17.297-3.48 24.232h17.36c-4.615-5.75-9.384-13.785-13.88-24.232m-108.62-34.033c.56-8.35 3.272-30.676 0-30.676-3.926 1.09-9.348 16.246-11.872 27.318-2.991 13.522-.561 25.502-.467 40.386 6.169-11.617 10.563-20.602 12.339-37.028m342.223 65.75c-2.781 0-5.87-2.497-8.397-5.13l-134.556 36.207q-.564.629-1.096 1.28c-1.875 2.254-2.642 2.851-3.848.051l-5.847 1.572c-.331 8.024-9.752 10.233-15.264 13.987.12-3.259.228-6.576.228-9.94l-237.565 63.927V550.995h39.664c-.425-10.603-1.211-21.037-1.997-30.494-.935-10.89-.56-23.143.374-28.95 1.589-9.803 0-29.678 3.553-32.945.84-1.725 1.962-4.357 5.328-4.175 4.393 1.18 3.459 11.98 3.459 18.514 1.588-4.537 2.336-6.262 4.58-11.708 1.87-4.537 5.889-10.345 11.404-10.255 7.01.181 6.076 17.426 5.98 19.966-.09 16.881.19 32.763-.184 50.19-.187 9.074-2.804 19.057-10.47 19.057-4.206 0-5.235-3.176-7.385-3.266-1.495 0-1.962 0-1.87 2.177.166 3.65.45 7.711.825 11.89h93.459c-3.2-5.803-6.52-12.816-10.433-20.24-9.722-24.957-19.35-45.286-24.864-75.327-.75-4.083-1.498-12.252-2.151-16.789-.748-6.08 2.617-8.804 6.45-12.07H137.18V83.33l184.246-67.34 159.849 410.578h-217.9c2.712 10.255 2.338 26.591 5.142 43.835 2.056 12.796 6.357 33.49 11.592 47.555 3.645 12.707 8.974 22.871 16.453 31.856 2.336-5.173 2.242-14.158 2.336-20.057.374-12.797-1.31-22.598-2.62-32.853-1.493-11.164-4.765-27.772-6.728-39.66 5.14-2.542 5.889-1.543 10.096-5.083 2.71-2.269 5.983-.545 5.702 2.27 1.028 17.333-.653 26.953 2.898 44.741 2.71 13.432 2.525 27.318 11.217 39.48 1.845 2.558 5.872 9.67 10.02 12.342h5.664c5.118-3.814-2.603-10.802-2.785-16.427-.933-24.323-4.767-47.374-8.132-71.243-.467-3.54-3.645-7.079-3.084-10.98.56-2.27 3.272-1.182 7.29-1.182 4.02 0 6.078 2.814 7.385 6.535 4.862 13.977-1.682 18.606 2.058 44.38.934 6.897 2.524 21.418 1.308 29.041-.8 4.938 1.393 13.437 2.367 19.876h5.74c0-.315.027-.649.027-.999.186-5.536-1.404-7.804 5.42-8.894 2.805-.453 10.564-2.268 11.03-.09.562 2.542-1.027 3.721-2.056 7.351-.255.937-.553 1.822-.935 2.632h11.604c-1.275-25.418-3.03-51.473-2.816-75.328-4.206-4.538-4.206-14.338-9.254-13.43-6.17 1.27-1.31 38.207-3.927 59.08-2.056 3.268-5.796 6.717-11.124 9.802-.186-13.34 2.618-28.406 2.99-42.746.376-15.338.376-29.677 2.993-35.576.748-2.995 4.767-8.44 9.816-4.538 7.664 5.173 5.047 9.802 8.692 16.61.562-4.81 1.496-7.534 2.712-13.342 2.056-4.9 4.86-16.427 8.038-15.338 5.703 1.905-1.59 15.61-1.308 20.874-.654 21.872.749 39.116 2.336 59.717.83 11.127 1.683 22.732 2.67 34.215h7.453c-.527-14.613-.942-31.768-1.427-45.378-.282-11.072 0-29.95 0-38.753 0-9.439 1.96-20.51 7.758-20.6 5.98.09 8.599 7.713 9.44 12.704 5.517-6.262 2.058-15.882 10.75-15.609 7.759.272 11.124 23.505 14.583 35.303 0 1-.374 3.45-1.122 4.175-3.365-8.168-6.45-17.788-13.274-25.229-.935 0-2.243 2.177-2.335 4.446-.095 10.62.747 20.148 4.485 25.684 5.422 7.896 7.759 18.877 9.723 27.408-.188 5.173 3.364 19.241-3.366 20.057-.841-.453-1.308-1.27-2.431-1.542 1.87-15.065-1.961-28.952-7.198-42.293-1.962 6.081-1.588 10.347-1.213 16.608 1.12 6.354 5.7 13.07 1.68 19.513-6.262-2.268-12.525-17.607-10.656-28.043-1.308-11.708 1.216-25.049-3.552-33.126-1.31-2.178-1.59-4.99-3.552-6.535-2.804 12.343.187 29.133-.654 40.024-.748 10.527 1.777 28.86 4.393 41.112.616 2.858 1.595 6.336 2.558 10.074h125.658c-1.3-1.539-2.29-2.866-2.768-3.449-1.682-1.815-3.085-2.723-2.617-5.173.935-4.992 8.787-2.995 11.218 0 3.365 4.175 6.73 9.892 6.73 14.067-.468 1.634-.468 1.816-2.058 2.04m-39.86-163.296 3.673 9.439.159-.058c3.617-1.327 6.09-3.382 7.413-6.156q1.981-4.17-.035-9.351-1.932-4.964-6.146-6.806-4.21-1.841-9.312.029c-1.855.68-3.481 1.653-4.873 2.91a12.95 12.95 0 0 0-3.188 4.375c-.684 1.56-1.04 3.183-1.04 4.847a13.3 13.3 0 0 0 .924 4.988c.82 2.105 1.917 3.807 3.279 5.092 1.359 1.285 3.089 2.253 5.173 2.896l1.06-2.674c-1.78-.546-3.246-1.323-4.387-2.335s-2.018-2.302-2.625-3.86c-1.085-2.788-.977-5.465.315-8.02 1.294-2.555 3.483-4.403 6.556-5.531q3.914-1.433 7.199.032c2.188.977 3.785 2.746 4.778 5.299q1.244 3.195.138 6.22c-.737 2.017-2.093 3.513-4.067 4.478l-2.73-7.016zm-4.098-43.67-22.787 11.775 23.21 6.73-16.245 8.493 1.035 2.658 22.744-11.833-23.005-6.735 16.083-8.43zm-4.317-11.096-21.897 11.378 1.087 2.797 21.89-11.398zM476.92 329.3l3.672 9.44.159-.058c3.618-1.326 6.092-3.381 7.414-6.156q1.98-4.169-.035-9.351-1.932-4.964-6.145-6.805-4.214-1.842-9.313.029c-1.854.68-3.481 1.65-4.873 2.91a12.9 12.9 0 0 0-3.187 4.374c-.685 1.56-1.041 3.183-1.041 4.848a13.3 13.3 0 0 0 .924 4.987c.819 2.106 1.917 3.808 3.277 5.093 1.36 1.284 3.09 2.252 5.174 2.896l1.06-2.674c-1.781-.546-3.246-1.323-4.386-2.335s-2.02-2.302-2.625-3.86c-1.085-2.788-.978-5.466.314-8.021 1.294-2.555 3.483-4.404 6.555-5.53q3.916-1.434 7.2.03c2.189.978 3.786 2.747 4.779 5.3q1.243 3.195.139 6.22-1.107 3.028-4.068 4.479l-2.73-7.016zm1.888-28.281-21.898 11.379 1.088 2.797 21.89-11.4zm-10.35-26.606-22.787 11.775 23.21 6.729-16.245 8.494 1.034 2.658 22.745-11.833-23.007-6.735 16.083-8.43zm-5.176-5.811 2.413-1.29-4.645-11.942-21.898 11.377 4.482 11.522 2.383-1.227-3.458-8.89 6.537-3.392 3.452 8.874 2.352-1.211-3.46-8.89 8.199-4.297zm-10.038-33.297-21.897 11.379 1.402 3.605c.76 1.952 1.403 3.299 1.928 4.032a6.15 6.15 0 0 0 1.906 1.753 5.9 5.9 0 0 0 2.604.8c.926.06 1.88-.085 2.843-.437 1.918-.704 3.213-1.89 3.872-3.542.66-1.655.596-3.545-.204-5.658l13.34 2.964-1.255-3.225-13.19-2.67-.441-1.134 10.114-5.241zm-11.106 8.927.706 1.813q.659 1.696.854 2.567c.13.579.178 1.119.178 1.605-.036.782-.354 1.483-.86 2.09q-.754.919-2.05 1.394-1.949.714-3.215-.173c-.844-.592-1.701-2.01-2.568-4.24l-.463-1.19zm5.92-14.768 2.413-1.29-4.646-11.941-21.898 11.378 4.48 11.52 2.386-1.225-3.46-8.892 6.538-3.392 3.452 8.875 2.352-1.211-3.46-8.89 8.2-4.297zM414.66 203.79l1.099 2.826 18.869-2.205-13.941 14.872 1.158 2.98 19.173-21.017zm12.884-34.548-22.787 11.774 23.21 6.73-16.245 8.493 1.034 2.658 22.745-11.833-23.006-6.735 16.083-8.428zm-5.175-5.812 2.412-1.288-4.646-11.945-21.898 11.379 4.483 11.52 2.384-1.225-3.46-8.892 6.538-3.391 3.452 8.875 2.352-1.212-3.46-8.89 8.2-4.297zm-7.977-27.995-19.524 10.122-2.186-5.617-2.386 1.222 5.48 14.085 2.378-1.238-2.21-5.683 19.507-10.171zm-11.698-30.074-22.788 11.773 23.21 6.732-16.244 8.492 1.034 2.659 22.745-11.833-23.006-6.735 16.082-8.43zm-5.174-5.811 2.41-1.29-4.645-11.943-21.897 11.379 4.48 11.52 2.385-1.226-3.46-8.891 6.538-3.391 3.453 8.875 2.35-1.212-3.458-8.89 8.199-4.298zm-11.883-38.033L363.74 72.896l1.17 3.009q1.475 3.787 2.297 5.215c.55.95 1.152 1.719 1.797 2.295q2.258 2.017 5.345 2.46c2.058.3 4.186.05 6.376-.753 2.065-.755 3.83-1.85 5.297-3.27 1.465-1.42 2.475-3.022 3.02-4.791.419-1.36.536-2.806.347-4.326q-.276-2.282-2.112-7.001zm-1.351 3.919.564 1.447c.886 2.28 1.439 3.899 1.664 4.843.22.949.299 1.813.237 2.579-.16 1.802-.847 3.408-2.045 4.805-1.196 1.399-2.828 2.482-4.88 3.235-1.73.634-3.382.853-4.947.66q-2.353-.294-4.06-1.761c-.53-.443-1.031-1.053-1.487-1.833-.456-.781-.99-1.943-1.588-3.478l-.607-1.562zM354.075 48.05l1.057 2.717 13.328-6.93c.479-.244.883-.447 1.207-.598q.486-.227.787-.34c1.646-.603 3.07-.643 4.263-.122 1.197.518 2.108 1.582 2.728 3.178.44 1.13.626 2.2.567 3.203a5.6 5.6 0 0 1-.944 2.798c-.76 1.123-2.493 2.4-5.188 3.808-.25.124-.443.228-.568.297l-11.735 6.133 1.048 2.69 12.306-6.417.012-.004c3.44-1.782 5.644-3.463 6.606-5.023.73-1.198 1.13-2.543 1.198-4.018.067-1.477-.211-3.014-.828-4.6-.883-2.268-2.178-3.866-3.877-4.776-1.703-.907-3.56-1-5.562-.263-.762.279-1.664.665-2.697 1.15q-1.55.736-3.713 1.878zm16.248-25.901-19.524 10.122-2.187-5.617-2.384 1.22 5.479 14.088 2.38-1.24-2.212-5.683 19.507-10.171zM356.893 0l-.948 2.605c1.694.075 3.008.364 3.927.868q1.382.764 2 2.35c.528 1.354.545 2.594.057 3.702-.486 1.106-1.408 1.914-2.748 2.405-.838.308-1.62.367-2.322.178-.71-.186-1.805-.9-3.277-2.124q-2.852-2.378-4.607-2.902c-1.17-.35-2.407-.286-3.698.187-1.967.72-3.348 1.933-4.125 3.622-.782 1.694-.793 3.523-.035 5.475.504 1.293 1.24 2.324 2.199 3.077.959.758 2.199 1.289 3.703 1.588l.959-2.568c-1.162-.132-2.115-.438-2.836-.916-.726-.477-1.26-1.146-1.591-2-.46-1.178-.467-2.271-.024-3.27.445-1 1.244-1.714 2.386-2.133 1.532-.563 3.364.066 5.494 1.878.372.313.663.559.859.729 1.555 1.255 2.914 2.016 4.066 2.272 1.152.257 2.433.13 3.826-.381 2.129-.78 3.576-2.04 4.333-3.771.757-1.732.709-3.7-.141-5.886-.622-1.597-1.568-2.821-2.825-3.66-1.26-.84-2.806-1.285-4.63-1.285z"/></g></defs><path fill="#fff" d="M0 0h1280v1280H0z"/><use x="207.2885px" y="199.71px" href="#b"/></svg>
