<?xml version="1.0" encoding="UTF-8" standalone="no"?>
<svg
   xmlns:dc="http://purl.org/dc/elements/1.1/"
   xmlns:cc="http://creativecommons.org/ns#"
   xmlns:rdf="http://www.w3.org/1999/02/22-rdf-syntax-ns#"
   xmlns:svg="http://www.w3.org/2000/svg"
   xmlns="http://www.w3.org/2000/svg"
   version="1.1"
   id="svg125"
   xml:space="preserve"
   width="639.59998"
   height="215.34801"
   viewBox="0 0 639.59998 215.34801"><metadata
     id="metadata131"><rdf:RDF><cc:Work
         rdf:about=""><dc:format>image/svg+xml</dc:format><dc:type
           rdf:resource="http://purl.org/dc/dcmitype/StillImage" /><dc:title></dc:title></cc:Work></rdf:RDF></metadata><defs
     id="defs129"><clipPath
       clipPathUnits="userSpaceOnUse"
       id="clipPath141"><path
         d="M 0,161.511 H 479.7 V 0 H 0 Z"
         id="path139" /></clipPath></defs><g
     style="fill:#006b00;fill-opacity:1"
     id="g133"
     transform="matrix(1.3333333,0,0,-1.3333333,0,215.348)"><g
       style="fill:#006b00;fill-opacity:1"
       id="g135"><g
         style="fill:#006b00;fill-opacity:1"
         id="g137"
         clip-path="url(#clipPath141)"><g
           style="fill:#006b00;fill-opacity:1"
           id="g143"
           transform="translate(281.2998,161.145)"><path
             d="M 0,0 C 2.4,-3.5 6.7,-5.6 7.6,-9.8 L 7.4,-29 c -1.1,-3.9 -0.9,-8.7 -1.2,-12.7 -0.4,-5.2 -1.3,-9.2 -1,-14.2 -1.5,-3 0.2,-7.3 -1.4,-10.3 0.7,-4.9 -1.1,-8.8 -2.2,-13 l -0.2,-12.2 -0.5,-1.2 0.3,-27.6 c 1.1,-2.9 1.9,-7.2 0.2,-10.1 -1,0.1 -1.6,1.2 -1.9,1.9 -2.3,5.3 -6.7,9.5 -6.3,15.9 -0.9,0.9 0,3.1 -1.6,3.1 -2.2,-4.3 -3,-10.3 -8,-12.2 -1.5,-0.6 -2.8,1.1 -3.6,2.4 -1.6,2.7 0.2,7 -1.4,9.8 l 0.2,22.1 c 1.2,4.2 1,9.3 1.2,13.7 0.4,6.1 1.6,10.7 0.8,16.8 0.7,1.1 1.6,-0.3 2.4,-0.5 1.8,-2.9 5.8,-3.2 6.4,-6.3 1.1,-5.2 -0.6,-10 -0.9,-15.1 l -0.5,-0.5 c 0.8,-5.1 -1.3,-9.6 -1,-14.8 l -0.7,-1.7 0.3,-13 c 0.2,-0.3 0.5,-0.6 0.9,-0.5 l 5.8,11.6 0.2,27.3 c 1.1,2.5 -0.2,6.1 1.2,8.4 -0.7,5.7 1.4,10.1 1,15.6 l 0.5,0.5 c 0.7,3.3 0.2,7.1 0.9,10.3 1,4.4 -0.6,9.4 0.7,13.5 v 21.6 c 0.5,0.7 1.5,1.1 2,0.4"
             style="fill:#006b00;fill-opacity:1;fill-rule:nonzero;stroke:none"
             id="path145" /></g><g
           style="fill:#006b00;fill-opacity:1"
           id="g147"
           transform="translate(296.8999,147.9448)"><path
             d="M 0,0 C 2.5,-4.2 6.8,-8.1 6.9,-13.2 7,-17.7 7,-22.6 6,-27.1 5.3,-30 3.6,-32.5 2.6,-35.2 1.8,-37.8 2.4,-40.8 1.6,-43.4 0.5,-47.5 1.8,-52.6 0.2,-56.6 L 0,-69.8 c -0.9,-2.4 -0.2,-5.4 -1.2,-7.7 L -1,-97.9 c 0.2,-0.4 0.6,-0.1 1,-0.2 1.3,2.2 3.8,4.1 4,6.7 0.4,3 0.2,6.4 -0.7,9.1 -1.2,3.9 1.4,6.9 1,10.8 1.2,2.1 1,4.8 1.4,7.2 1.2,6.1 2.5,12.4 7.7,16.1 0.9,0.6 1.1,-0.8 1.7,-1.2 0.6,-2.4 -0.5,-4.7 -1.5,-6.7 -2.1,-4.5 -1.1,-10.4 -1.2,-15.4 0.3,-0.3 0.6,-0.6 1,-0.5 4.3,7.5 5.7,16.1 5.3,25.5 1,1.4 -0.2,3.8 1.9,4.5 1.4,-0.4 2.2,-1.9 2.9,-3.1 C 23.6,-53 21.6,-60 19.4,-67.2 17.7,-73 15.9,-78.8 12.4,-84 L 12,-97.6 c -0.5,-0.4 -0.2,-1 -0.3,-1.5 l 1.5,-1.4 c 4.1,4.6 7.3,9.9 8.4,16.1 0.1,0.8 0.5,1.5 1.4,1.6 1.9,0.4 1.2,-2.5 1,-3.6 -1.5,-7.6 -4.9,-14.5 -7.5,-21.8 -0.6,-1.8 -2.1,-3.9 -4.5,-3.4 -2.9,3.4 -3.9,7.5 -6.8,10.8 -1,0 -1.5,-1 -2.1,-1.9 -1.7,-2.3 -1.7,-6.9 -5.5,-6.5 -3.7,3.2 -4,7.9 -4.6,12.3 -0.4,2.6 0.6,5.6 -1,7.7 1.1,9.1 -2.1,17.4 0,26.1 0.5,2 -1.8,3.6 0,5.3 0.4,3 -0.8,6.5 1,8.9 0.2,3.7 -0.6,7.8 0.7,11 l 0.3,18.5 0.4,1.7 0.3,14.6 c 1.1,2.4 -0.3,5.9 1.2,8.2 C -1.9,4.4 -1.1,1.9 0,0"
             style="fill:#006b00;fill-opacity:1;fill-rule:nonzero;stroke:none"
             id="path149" /></g><g
           style="fill:#006b00;fill-opacity:1"
           id="g151"
           transform="translate(226.6001,130.4448)"><path
             d="M 0,0 C 0.7,-1.7 -0.3,-4.1 0.7,-5.7 0.5,-11.9 2.6,-16.9 2.8,-23 2.9,-24.8 2.7,-27.1 4,-28.3 l 6.8,11 c 4.9,4.3 9.2,10.6 13.6,15.6 1.8,0.3 2.8,-1.8 3.9,-2.8 v -48.8 l -0.5,-1.6 -0.3,-14 c -0.8,-5.5 0.6,-12.1 -2.4,-16.8 -2.1,-3.2 -6.8,-1.6 -10.5,-1.9 -1,0.6 -2,1.1 -2.2,2.2 -0.5,3.5 1.9,6.8 1.5,10.8 0.9,0.8 0.3,2.3 0.7,3.3 1.6,4.3 2.3,8.9 2.9,13.5 0.6,4.6 1.8,8.9 1.7,13.9 1.1,1.9 -0.3,4.8 1.1,6.5 0.4,3.4 0.6,6.6 1.2,10.1 0.6,2.9 -0.2,6.5 1.2,9.1 -0.1,2.3 0.4,4.9 -0.4,6.9 -1.7,-0.3 -2.8,-2.5 -4.1,-3.8 C 12,-21.1 9.2,-28.4 8.1,-36.5 5.2,-39.8 5.7,-44.4 3.3,-48.2 0.6,-52.5 2.8,-59 1.6,-63.8 0.9,-66.6 1.4,-69.7 0.9,-72.5 0.1,-77.1 1,-81.9 0,-86.1 l -0.8,-0.5 -9.6,4.8 c -1.3,2.1 0.5,4.6 0.3,7.2 1.1,1.3 -0.3,3.6 1.2,4.8 0.7,6.2 2.6,11.7 3.3,18.2 0.5,4.3 -0.2,9.4 1.2,13.5 l 0.3,12.9 c 0.7,1.6 0.6,4.1 0,5.8 -1.1,2.5 1.2,7.1 -1.9,8.1 -1.2,-2.3 -3.4,-4.2 -5.1,-6.4 -4.3,-5.8 -5.2,-13 -8.1,-19.5 -2.4,-5.3 -3.5,-11.4 -4.6,-16.8 -0.6,-2.8 -1.3,-5 -1.4,-7.7 l -2.7,-14.4 c -0.8,-4.1 -0.8,-8.5 -1.4,-12.9 -0.4,-2.8 0.3,-6.2 -0.7,-8.9 -0.8,-2.1 -0.9,-4.4 -1.5,-6.5 -0.6,-2.5 1,-6.4 -2.1,-7.2 l -2.4,1.9 -8.7,8.9 c -1.5,1.8 -0.1,4.4 0,6.5 0.5,7.8 1.1,14.9 3.6,21.6 0.7,1.9 0.8,4.1 1.7,6 l 4.3,11.8 c 2.8,8.7 6.9,16.9 10.6,25.4 4.1,9.7 9.7,18.7 16.5,27.4 1.3,1.6 2.3,4.6 4.8,5 C -1.5,3.2 -0.6,1.2 0,0"
             style="fill:#006b00;fill-opacity:1;fill-rule:nonzero;stroke:none"
             id="path153" /></g><g
           style="fill:#006b00;fill-opacity:1"
           id="g155"
           transform="translate(271.7002,120.145)"><path
             d="m 0,0 c 0.9,-2.1 0.8,-4.9 0.4,-7.2 -2.2,-2.3 -5.1,-0.5 -7.2,0.7 -3,1.7 -1.2,6.2 -1.4,9.4 0,0.9 1.1,2.2 2.2,2.1 2.8,-0.1 3.9,-3.6 6,-5"
             style="fill:#006b00;fill-opacity:1;fill-rule:nonzero;stroke:none"
             id="path157" /></g><g
           style="fill:#006b00;fill-opacity:1"
           id="g159"
           transform="translate(404.3999,121.5449)"><path
             d="m 0,0 c -1.8,-5 -2.9,-12.3 -9.1,-13.4 -2.1,-0.4 -4,1.4 -4.4,3.4 -0.8,4.2 4.9,3.5 6,6.7 2.9,0.7 4.8,7.4 7.5,3.3"
             style="fill:#006b00;fill-opacity:1;fill-rule:nonzero;stroke:none"
             id="path161" /></g><g
           style="fill:#006b00;fill-opacity:1"
           id="g163"
           transform="translate(37.2002,116.5449)"><path
             d="m 0,0 c 2.8,-2.3 -1.1,-4.4 -0.5,-7 -0.9,-1 -2.4,-2.8 -3.8,-1.9 -1.9,1.2 -2.3,3.5 -1.7,5.5 0.3,1.1 1.9,2.1 0.7,3.2 -3.3,0.1 -7.2,0.3 -10.3,-0.8 -2,-0.7 -3.8,-1.8 -4.8,-3.6 -3.4,-5.8 -5.4,-12 -5.5,-19.6 -0.1,-2.2 -0.4,-4.5 -0.5,-6.8 1.4,-1.7 0.1,-4.6 1.4,-6.4 0.8,-9.4 4.5,-19.3 13.5,-23.6 3.2,-1.5 8.7,-3.2 11,0.5 3.6,5.8 6.5,12.7 4.3,20.4 -4.3,0.3 -9.1,-0.6 -12.9,1.2 -3.3,1.6 -8.3,1.8 -8.7,6.5 l 0.8,0.7 12.9,0.3 c 2.4,0.9 5.4,0.1 7.7,1.2 3.8,-0.8 9,3 10.6,-2.4 0.2,-0.2 0.3,-0.6 0.7,-0.5 l 0.5,0.5 0.7,19.2 c 0.4,2.7 0.3,5.6 2.4,7.6 2.2,-0.1 4.5,-0.4 5.7,-2.4 -0.5,-4.7 -2,-9.1 -2.6,-13.6 -0.5,-3.4 -0.8,-5.8 -1.2,-9.2 -0.4,-2.9 0.3,-6.5 -1.2,-9.1 0.2,-3.6 -0.8,-6.8 -1.4,-10.1 0.4,-0.4 -0.1,-1.6 0.9,-1.6 l 1.5,2.4 4.5,14.1 3.6,13.5 c 0.6,2.7 1.8,5.1 1.7,8.1 1.3,2.4 -0.2,6.2 1.7,8.2 2,2.1 4.7,-1.6 6.7,-3.1 -0.8,-8.7 -2.3,-16.8 -3.6,-25.5 -0.3,-2 -0.4,-4.2 -1,-6.2 -1.8,-6.8 1.4,-12.9 0.5,-19.9 1.6,-1.7 -0.1,-4.7 1.5,-6.3 -0.1,-0.6 0.3,-1.4 -0.5,-1.7 -5,1.4 -4.8,7.5 -6.5,11.6 -1.6,3.6 -0.2,8.6 -2.4,12 h -0.7 c -2.2,-6.9 -4.8,-13.5 -7,-20.4 -0.4,-1.3 -2.3,-2.4 -3.8,-1.5 l -1.2,1.2 0.2,19 c -0.6,3.4 2.3,6.2 0.3,9.3 -1.8,-0.6 -3.9,-0.6 -5.3,-2.1 0.2,-3.5 2.6,-6.9 0.7,-10.3 0.4,-5.8 -1.4,-10.8 -3.1,-15.6 -1.4,-3.9 -4.9,-7.1 -7.9,-10.1 -4.3,-4.3 -12.2,-3.8 -17.3,-1.9 -8.2,2.9 -10,11.6 -13,18.4 -2.1,4.8 -2.8,10 -3.1,15.4 -0.8,1.1 -0.2,3.7 -2.4,3.4 v 11 c 2.8,0.5 1.5,4.4 2.6,6.5 -0.2,4 2,6.9 2.7,10.8 1,5.9 7,12.3 13.4,12.7 2.6,0.1 4.2,1.9 6.5,2.4 4.8,0.9 8.8,-1 12,-3.6"
             style="fill:#006b00;fill-opacity:1;fill-rule:nonzero;stroke:none"
             id="path165" /></g><g
           style="fill:#006b00;fill-opacity:1"
           id="g167"
           transform="translate(108.2002,106.4448)"><path
             d="m 0,0 c -0.2,-2.1 0.6,-4.8 -0.7,-6.5 1,-4.2 -1.9,-7.3 -0.2,-11.2 1.2,-0.2 0.6,1.4 1.4,1.6 3.3,6.8 2.6,15.7 9.9,20.4 2.6,-0.8 5.3,-2.7 6.2,-5.2 1.3,-4 0.8,-9 0.5,-13.2 l -0.5,-0.5 -0.2,-33.9 -0.8,-1.6 V -65 c -0.1,-0.5 -0.6,-0.8 -0.9,-1.2 H 14 c -4,3.3 -5.4,8.4 -9.4,11.7 1,5.6 0.5,11.7 1.7,17.3 0.4,2.1 -0.2,4.6 0.7,6.5 1.1,2.4 0.7,5.4 1.4,7.9 1.3,4.3 0.6,9.2 1.5,13.5 0.3,1.4 -0.1,2.8 -0.5,4 C 6.6,-6 7.1,-9.4 5.8,-11.3 5.2,-12.1 5,-12.9 4.6,-13.9 1.8,-21.6 0.3,-29.7 -0.9,-38.1 c -0.4,-2.3 -0.3,-4.8 -1.5,-6.8 0.7,-4.4 -1.1,-7.8 -1.2,-12 -0.5,-0.7 -1.6,-1.6 -2.1,-0.7 -2.6,4.7 -10.8,7.7 -7.2,14.4 -0.4,6.1 1.5,11.2 1.2,17.3 0.9,1.9 -0.2,4.6 0.7,6.5 0.9,2 1.1,4.3 1.4,6.5 0.3,2.1 0.8,5.2 -1.2,6.2 -2.1,-8.6 -6.3,-16.3 -7.6,-25.2 -0.9,-5.1 -2.6,-10.1 -2.7,-15.4 0,-3.3 -0.5,-6.1 -1.4,-8.8 -2.6,2.4 -9.1,2 -7.7,7.4 1.4,5.8 2.8,11.7 2.6,17.8 -0.1,7.6 0.7,14.1 1,21.6 0.1,3.7 0.3,8 0.5,12 0.5,0.7 1.2,1.7 2.1,1.9 2,0.4 3.9,-0.4 4.6,-2.2 0.7,-1.8 1.2,-3.8 1.4,-5.7 0.4,-3 -0.4,-6.4 0.5,-9.2 1.3,0.5 2.1,2.1 2.4,3.4 1.4,5.9 2.8,11.7 7.9,15.4 C -4.3,5.2 -2.1,1.8 0,0"
             style="fill:#006b00;fill-opacity:1;fill-rule:nonzero;stroke:none"
             id="path169" /></g><g
           style="fill:#006b00;fill-opacity:1"
           id="g171"
           transform="translate(172.2998,109.145)"><path
             d="m 0,0 c -2.5,-6.5 -3.9,-13.4 -4.3,-20.7 l -0.5,-0.5 v -28.5 c 1.5,-2.2 -0.2,-5.9 2.4,-7.5 1.2,1.7 2,3.6 2.4,5.6 0.8,3.2 2.2,5.9 2.2,9.3 l 0.5,0.7 V -24 c -0.8,0.9 -0.9,2.1 -1.2,3.3 -1.3,5.1 -2.8,10.5 -1.2,15.9 0.3,1.2 2.1,2.1 3.1,1.2 4.7,-4.5 6,-10.6 6.7,-16.8 L 9.9,-35.6 C 8.9,-39.8 9,-44.5 7,-48.3 L 1.2,-59.6 c -0.5,-1.7 -1,-4.1 -3.1,-4.5 -3.9,-0.8 -6.7,3.5 -8.2,6.7 -3.1,7 -3.9,15.2 -5.2,22.8 -0.6,2.9 -0.9,6.5 0.9,8.9 0.3,8 0.7,16 3.4,23 0.8,2.3 2.3,4.5 4.3,6 2.7,0 5,-1.5 6.7,-3.3"
             style="fill:#006b00;fill-opacity:1;fill-rule:nonzero;stroke:none"
             id="path173" /></g><g
           style="fill:#006b00;fill-opacity:1"
           id="g175"
           transform="translate(336.2002,99.0449)"><path
             d="m 0,0 c 1.4,-5.3 -1.9,-9.6 -0.2,-14.7 0.4,-0.1 0.8,0.2 0.9,0.5 0.6,1.3 1.5,2.4 2,3.6 2,5.4 4.6,10.7 7.9,15.6 1.4,2.1 2.9,0 3.6,-1.2 1.9,-3.3 5,-6.8 4.3,-10.5 -0.7,-3.9 -1.3,-7.7 -2.2,-11.8 -0.7,-3.5 -0.4,-7.6 -1.4,-11 -1.5,-5.4 -0.6,-11.7 -1.4,-17.1 -1,-6.5 1.1,-12.3 1.4,-18.5 0.1,-1 0.3,-3.2 -1,-2.8 -5.4,1.6 -4.1,8.6 -8.4,12 -1,3.4 0.3,6.2 0.8,9.6 0.2,2 0.8,4 1.4,6 1.4,4.5 0.2,9.9 1.4,14.4 l 0.3,14.8 c 1,1.3 0.2,3.1 -0.3,4.4 -0.8,-1 -1.9,-2.3 -2.4,-3.6 -1.9,-6.3 -6.3,-11.5 -6.9,-18.3 -1,-0.3 -0.3,-1.2 -0.7,-1.9 -2.6,-4 -1.5,-9.7 -2.4,-14.4 -0.7,-3.1 -1.1,-6.2 -1.2,-9.4 -2.3,-1.7 -4.4,1.3 -6.5,2 -1.6,1.8 -0.5,5 -0.5,7.2 0,7.1 1.1,12.8 1.4,19.9 0.2,2.9 0.7,6 1,8.9 0.9,7.2 -0.4,14.8 -2.9,21.3 -0.6,1.6 -0.4,3.9 1.7,4.6 C -6,8.4 -1,4.1 0,0"
             style="fill:#006b00;fill-opacity:1;fill-rule:nonzero;stroke:none"
             id="path177" /></g><g
           style="fill:#006b00;fill-opacity:1"
           id="g179"
           transform="translate(424.7998,96.645)"><path
             d="m 0,0 c 0,-3.8 -1.2,-7.5 -1.5,-11.3 -0.6,-8 -2.9,-15.1 -3.3,-23 l -0.5,-0.8 v -13.4 c 0.9,-2.7 1.1,-5.7 2.6,-8.2 -0.2,-0.4 -0.2,-0.9 -0.7,-1.2 -3.5,1.6 -5,5.6 -6.9,8.7 -1.5,2.3 -1.7,5.1 -2,7.9 -1.3,0.2 0,2.2 -1.6,1.7 -1.3,-3.5 -2.8,-7 -4.4,-10.3 -1.2,-2.7 -4.3,-6.5 -7.4,-6.3 -3.1,3.6 0.9,8.1 -0.7,12.5 -1,0.8 -1.8,-0.5 -2.7,-0.7 -2.9,-3.4 -3.4,-8.7 -8.1,-10.6 -1.6,0.3 -3.2,1.6 -3.9,3.1 l -0.2,25.7 c 1.6,2.8 -0.1,7 1.4,9.9 -0.8,5.4 1.6,9.6 1.7,14.6 0.1,2.8 0.4,5.7 2.7,7.4 2.6,-1.2 5,-3 7.4,-5 0.3,-6.2 -3.2,-11.2 -3.6,-17.5 -0.3,-5.2 -2.3,-10.2 -2.2,-15.4 0.2,-4.9 -1.9,-8.6 -0.2,-13.2 3.5,-0.1 2.6,5.2 6.5,4.6 1.3,1.4 1.5,3.3 1.7,5.3 l 1.9,8.6 0.2,14.4 c 0.7,4.7 0.7,10.4 0,15.1 1.2,1.4 3.4,1.8 4.8,1 1.6,-1 2.1,-2.9 2.4,-4.6 l -0.2,-19.2 -0.5,-0.5 c -0.2,-3.2 0.6,-6.8 -0.7,-9.6 0.3,-1.7 -0.8,-4.5 0.9,-5.2 0.9,0.6 0.2,2 1.2,2.6 1.8,6.1 3.2,12.2 4.1,19 0.3,2.3 -0.1,5.1 1,7.2 -0.3,3.5 1.5,6.2 1.2,9.8 C -9,4.3 -9.1,6 -7.7,6.7 -4.1,5.9 0,4.1 0,0"
             style="fill:#006b00;fill-opacity:1;fill-rule:nonzero;stroke:none"
             id="path181" /></g><g
           style="fill:#006b00;fill-opacity:1"
           id="g183"
           transform="translate(139.3999,100.9448)"><path
             d="m 0,0 c 0.3,-9.5 -3.7,-20 0.8,-28.3 3.3,-6.3 3,-13.8 8.6,-19 0.5,0 0.9,0.1 1.2,0.5 0,0.8 0.1,1.6 -0.5,2.2 -0.5,4.4 -1.3,8.9 -1.4,13.4 C 8.5,-26.3 7.4,-21.9 7,-17.3 6.8,-15 5.9,-13 5.6,-10.8 4.9,-6.2 3.3,-2.2 1.2,1.7 0.5,1.5 0.8,0.4 0,0 M -4,51.1 4.6,42.2 C 5.8,37.7 3.4,34 3.9,29.5 2.9,27.7 4.1,24.9 3.2,23 2,20.6 3.1,17.4 1.7,15.1 2.3,13 0.5,11.4 1.7,9.6 5.2,9 8.8,12.6 12,7.9 c 3.1,-4.4 1.2,-10 3.4,-14.4 l -0.2,-39.3 c -1.2,-3.9 -0.4,-8.7 -3.9,-11.3 -2.9,0.9 -5.3,4.1 -6.5,6.9 -1.5,3.7 -3.1,7.3 -5,10.8 -0.6,0.3 -0.7,-0.4 -1,-0.7 -0.3,-4.1 0.8,-8.7 -0.9,-12.2 -2.4,-1.3 -2.4,2.1 -3.6,3.1 -0.6,2.5 -1.9,4.6 -1.7,7.4 L -8.6,-37.4 -8.8,0 c -1.7,6.5 1,12.5 0.4,19.2 l 0.5,1.7 -0.2,28.1 c -0.8,1.2 -0.5,3.1 -0.3,4.5 2.2,2.3 3.7,-0.9 4.4,-2.4"
             style="fill:#006b00;fill-opacity:1;fill-rule:nonzero;stroke:none"
             id="path185" /></g><g
           style="fill:#006b00;fill-opacity:1"
           id="g187"
           transform="translate(369.1001,95.9448)"><path
             d="m 0,0 c -1.6,-3 0.1,-7.2 -1.4,-10.1 0.5,-0.7 -0.4,-2.2 0.9,-2.4 0.7,1.1 0.5,2.6 1,3.8 C 2.1,-4.3 5.3,-0.6 5,4.5 5.6,5.4 6.9,7 7.7,6 c 1.6,-2.3 5,-3.7 5,-7 0.1,-2.6 -0.1,-5.1 -0.7,-7.4 l -0.2,-13.2 -0.5,-1.7 v -30.3 c -0.2,-0.6 -0.8,-0.9 -1.2,-1.4 -1.6,-0.4 -3,0.6 -3.6,1.9 -1.4,3.2 -4.1,5.4 -4.3,9.4 -0.3,4 0.3,7.9 1.2,11.7 0.4,1.8 0.2,3.8 1.4,5.3 0.1,5.1 0.6,9.9 1.4,14.7 -0.5,0.7 0.4,2.4 -0.9,2.4 -1,-0.1 -0.1,-1.5 -0.7,-2 -0.8,-2.8 -2,-5.5 -2.4,-8.6 -0.3,-2 -1.7,-3.7 -2.4,-5.5 -2.7,-6.4 -3.5,-13.4 -6.5,-19.7 -1.2,-2.5 2.5,-7 -1,-8.4 -1.2,-0.5 -2.4,0.8 -2.9,1.9 -0.4,1.1 -2.4,1.8 -2.8,3.4 -0.6,2.1 -3.6,4.1 -1.5,6.5 0.9,6.5 2.3,12.6 3.4,19.2 0.4,2.4 1.2,5 1.2,7.4 0.1,5.9 1.3,10.6 0.9,16.3 1.9,1.7 -1.9,6.9 2.4,5.5 C -4.1,5.5 -1.2,2.8 0,0"
             style="fill:#006b00;fill-opacity:1;fill-rule:nonzero;stroke:none"
             id="path189" /></g><g
           style="fill:#006b00;fill-opacity:1"
           id="g191"
           transform="translate(434.8999,93.2446)"><path
             d="m 0,0 c 0.8,-2.7 0.5,-5.8 1.6,-8.4 l 0.3,-6.9 c 0.6,-0.5 1.2,-0.6 1.4,0.2 1.5,6.3 2.8,12.6 6.7,17.8 0.7,0.8 2.1,1.5 2.9,0.7 5.5,-5.2 3.7,-13.5 6,-19.9 0.4,-0.1 0.5,0.3 0.7,0.4 0.2,2.2 2.6,3.2 2.4,5.1 3.5,4.8 3.7,11.1 8.2,15.3 1.1,1.1 2.8,-1 3.1,-2.1 2.2,-6.5 2.9,-13.5 3.9,-20.4 1.4,-1.7 0.9,-4.3 1.2,-6.5 1,-8.4 2.7,-15.6 2.6,-24.5 0,-4.3 2.6,-8.1 2.9,-12.5 l 0.9,-0.7 v -24 c -2,-1.3 -3.3,-4.9 -6.2,-5.3 -2.5,-0.3 -5.6,-3.5 -7.2,0.3 0.5,3.9 0.8,8.5 1.4,12.7 0.5,2.8 0.4,6.4 -0.2,9.1 -0.8,3.8 0.6,8.1 -0.7,11.5 l -0.3,21.6 c -1,2.3 -0.3,5.3 -0.9,7.7 -1.5,5.7 -1.8,12 -2.2,17.8 -2.6,1.1 -1.7,-2.8 -3.3,-3.9 -1.4,-5.7 -1.8,-11.9 -5.3,-16.8 0.1,-1.9 -0.1,-3.7 -1,-5.2 l -0.2,-16.6 c -1.1,-1.5 0.4,-4.5 -2.2,-5 -3,-0.7 -5.2,1.8 -6.9,3.8 -1,1.1 -1.5,3.1 -0.8,4.6 0.7,1.2 0.2,2.9 1.2,4 0.3,2.3 0,4.7 0.8,6.8 1.3,3.8 -0.5,8.7 0.9,12.4 l -0.2,18 -0.7,0.5 C 7.6,-10.6 8.6,-14.8 6.7,-17.7 L 3.3,-33.6 c -0.5,-4.5 -2.5,-8.3 -2.6,-13.2 -0.1,-3.6 -0.6,-6.9 -1.2,-10.5 -0.4,-2.2 -3,-0.5 -4.1,0.2 -5.1,3.4 -4.5,9.6 -4.1,15.1 0.4,4.2 1.4,7.1 1,11.1 1.2,2.1 1.1,4.8 1.4,7.2 0.4,2.6 0.1,5.1 0.7,7.4 V 5.3 C -5.3,6.5 -3.8,6.6 -3.2,6 -1.4,4.4 -0.7,2.2 0,0"
             style="fill:#006b00;fill-opacity:1;fill-rule:nonzero;stroke:none"
             id="path193" /></g></g></g></g></svg>