<?xml version="1.0" encoding="UTF-8" standalone="no"?>
<svg
   xmlns:dc="http://purl.org/dc/elements/1.1/"
   xmlns:cc="http://creativecommons.org/ns#"
   xmlns:rdf="http://www.w3.org/1999/02/22-rdf-syntax-ns#"
   xmlns:svg="http://www.w3.org/2000/svg"
   xmlns="http://www.w3.org/2000/svg"
   version="1.1"
   id="svg29"
   xml:space="preserve"
   width="865.42267"
   height="880.58002"
   viewBox="0 0 865.42267 880.58002"><metadata
     id="metadata35"><rdf:RDF><cc:Work
         rdf:about=""><dc:format>image/svg+xml</dc:format><dc:type
           rdf:resource="http://purl.org/dc/dcmitype/StillImage" /><dc:title></dc:title></cc:Work></rdf:RDF></metadata><defs
     id="defs33"><clipPath
       clipPathUnits="userSpaceOnUse"
       id="clipPath45"><path
         d="M 0,660.435 H 649.067 V 0 H 0 Z"
         id="path43" /></clipPath></defs><g
     style="fill:#00600f;fill-opacity:0.94117647"
     id="g37"
     transform="matrix(1.3333333,0,0,-1.3333333,0,880.58)"><g
       style="fill:#00600f;fill-opacity:1"
       id="g39"><g
         style="fill:#00600f;fill-opacity:1"
         id="g41"
         clip-path="url(#clipPath45)"><g
           style="fill:#00600f;fill-opacity:1"
           id="g47"
           transform="translate(534.2764,471.5845)"><path
             d="m 0,0 c -3.926,-0.091 -4.301,-7.352 -7.291,-7.442 -0.936,0 -1.776,0.454 -1.402,2.994 2.803,19.332 3.365,34.125 7.197,53.183 0.842,5.718 -2.524,10.528 -7.852,11.98 -1.776,-0.09 -3.925,-1.543 -3.833,-4.265 -1.028,-22.689 -3.739,-44.199 -4.206,-64.437 0,-2.632 0.373,-11.98 4.674,-11.889 5.048,-0.272 11.498,11.98 14.488,16.7 C 1.683,-2.632 0.841,0 0,0"
             style="fill:#00600f;fill-opacity:1;fill-rule:nonzero;stroke:none"
             id="path49" /></g><g
           style="fill:#00600f;fill-opacity:1"
           id="g51"
           transform="translate(100.8169,533.1162)"><path
             d="m 0,0 c 0.28,2.451 -5.141,4.084 -8.413,3.903 -3.459,-3.267 -2.337,-6.807 -3.084,-12.979 -2.244,-16.517 -5.796,-33.67 -15.705,-48.191 2.898,18.151 4.955,37.483 8.693,54.453 0.748,3.812 -1.682,5.536 -5.982,5.446 -5.609,-0.091 -6.543,-7.986 -6.45,-13.341 0,-3.358 -0.374,-7.533 -0.281,-10.165 0,-1.815 0.281,-9.529 -1.215,-10.527 -0.187,1.633 0.655,3.357 -1.215,3.357 -12.9,-0.181 -17.107,-2.45 -27.576,-2.904 -4.861,-0.181 -10.282,1.271 -12.807,-2.087 -1.776,-2.451 -0.56,-3.993 2.244,-4.992 6.17,-2.087 15.611,-3.993 25.987,-4.175 0.654,-1.996 1.308,-5.173 1.122,-7.169 -1.309,-10.528 -4.02,-22.87 -14.396,-23.96 -7.385,-0.907 -9.161,1.09 -14.583,5.627 -8.6,7.17 -11.03,22.689 -11.591,28.679 -1.589,17.335 -2.711,43.835 14.676,48.645 5.702,1.543 7.104,0.182 10.376,-1.634 0.468,-2.813 -0.093,-2.904 -0.654,-5.264 -0.748,-2.813 1.028,-4.265 4.02,-4.991 4.113,-0.998 6.075,7.26 6.075,9.711 -5.235,8.35 -18.508,8.531 -26.173,5.537 -27.857,-11.074 -24.772,-40.659 -22.435,-62.169 4.206,-20.964 11.872,-40.023 34.493,-43.653 8.974,-2.087 21.5,7.805 23.277,13.432 3.458,10.618 4.58,18.151 4.486,29.677 0.281,7.169 -1.121,12.524 5.889,11.98 0.094,-8.804 -2.149,-22.235 -2.149,-31.947 0.467,-3.539 -0.935,-6.352 3.832,-6.806 5.609,-0.635 4.113,2.904 5.235,7.26 1.495,6.444 3.552,15.338 7.852,20.874 1.589,-7.533 2.524,-16.517 6.45,-24.231 1.683,-3.54 3.459,-5.355 5.983,-6.535 0.747,-0.272 3.178,0 2.804,1.089 -7.572,19.784 -5.141,42.02 -1.776,62.349 C -1.869,-10.074 -1.963,-6.08 0,0"
             style="fill:#00600f;fill-opacity:1;fill-rule:nonzero;stroke:none"
             id="path53" /></g><g
           style="fill:#00600f;fill-opacity:1"
           id="g55"
           transform="translate(507.168,530.6665)"><path
             d="m 0,0 c -3.554,-3.63 -5.235,-18.605 -12.06,-27.318 0.955,7.991 1.31,14.067 1.31,19.059 0,0.363 -7.946,9.257 -9.629,9.257 -1.869,0 -3.084,-0.454 -2.991,-2.269 0.094,-15.882 -1.87,-35.123 -3.645,-48.373 -0.468,-4.084 -1.871,-9.983 -3.179,-14.702 0,-1.724 0,-3.449 0.093,-5.174 2.992,-2.45 4.674,-7.532 9.536,-8.712 2.336,0.272 2.055,3.993 2.243,7.17 0.186,3.539 2.056,9.892 2.898,13.16 4.3,15.791 7.852,22.598 11.497,37.209 1.403,1.361 2.244,0.545 2.057,-1.452 -2.057,-16.789 -5.421,-33.58 -2.711,-48.736 2.711,-3.811 5.608,-9.347 11.03,-9.257 -0.84,18.151 -0.654,45.56 0.655,64.527 C 8.413,-5.809 3.645,0.544 0,0"
             style="fill:#00600f;fill-opacity:1;fill-rule:nonzero;stroke:none"
             id="path57" /></g><g
           style="fill:#00600f;fill-opacity:1"
           id="g59"
           transform="translate(142.228,471.6753)"><path
             d="m 0,0 c 1.963,17.969 7.478,34.668 12.713,51.095 1.589,2.36 2.992,1.906 2.992,-0.182 0.186,-16.971 -2.992,-37.391 -6.17,-54.907 -0.374,-2.45 -1.309,-6.081 0.373,-7.714 4.207,-4.084 6.451,-6.081 11.219,-10.891 4.487,-2.269 4.579,1.543 4.579,4.084 -0.373,23.596 0.281,46.376 -0.653,70.064 -0.562,6.534 1.028,10.164 -8.226,13.522 C 10.75,66.796 8.693,56.086 7.011,51.549 4.487,44.924 4.487,40.113 0.748,34.486 -0.561,40.658 0.654,47.918 1.776,55.088 2.43,59.444 -2.43,66.069 -7.665,67.159 c -8.226,-5.355 -8.6,-18.969 -13.928,-26.319 -0.935,9.438 3.365,22.416 -5.983,23.687 -3.459,0 -5.422,0.272 -6.169,-3.177 0.747,-23.596 1.682,-45.922 -4.113,-68.793 0,-1.089 0.186,-3.086 1.121,-3.448 3.179,-1.271 5.235,-3.903 8.694,-3.812 4.673,-0.908 1.682,4.628 2.524,9.53 1.776,10.527 4.019,28.315 7.291,38.48 0.561,4.628 5.234,11.798 7.571,17.243 C -9.815,33.397 -12.526,17.424 -14.956,0.544 -16.452,-8.895 -12.713,-11.89 -5.235,-16.7 1.309,-16.609 -1.402,-5.446 0,0"
             style="fill:#00600f;fill-opacity:1;fill-rule:nonzero;stroke:none"
             id="path61" /></g><g
           style="fill:#00600f;fill-opacity:1"
           id="g63"
           transform="translate(562.5068,533.6616)"><path
             d="m 0,0 c -3.271,-0.092 -3.085,-2.723 -3.552,-6.444 -1.495,-12.706 -0.094,-24.868 -2.244,-37.21 -1.028,-6.262 -5.89,-18.878 -8.88,-13.069 -0.655,11.98 1.309,21.237 1.869,30.585 0.468,6.807 0.561,14.248 -1.776,19.331 -1.121,2.541 -4.954,2.36 -6.73,-0.363 -1.962,-2.905 -1.028,-14.067 -0.561,-20.692 3.458,-22.327 -7.665,-53.728 0.28,-55.361 4.02,-0.817 6.544,4.991 8.881,10.981 1.495,3.902 2.899,8.712 4.768,12.433 1.495,-9.529 11.871,-28.588 14.769,-25.593 2.804,2.36 -3.553,8.168 -3.646,13.704 -1.589,17.516 1.869,41.022 5.89,59.99 C 10.096,-6.898 4.487,0.091 0,0"
             style="fill:#00600f;fill-opacity:1;fill-rule:nonzero;stroke:none"
             id="path65" /></g><g
           style="fill:#00600f;fill-opacity:1"
           id="g67"
           transform="translate(231.7803,536.4746)"><path
             d="m 0,0 c -1.683,2.814 -5.049,3.63 -7.666,3.63 -11.03,-0.091 -11.403,-18.968 -12.338,-26.501 -1.215,-15.609 0.374,-37.391 5.047,-49.915 2.244,-5.99 5.234,-9.53 9.723,-10.619 1.963,-0.544 3.832,-0.363 4.673,0.091 5.235,3.267 12.994,22.689 13.834,41.475 0.468,10.891 1.217,31.039 -11.029,36.303 -1.963,0.817 -3.459,0.454 -3.459,-1.724 0,-2.542 0.747,-2.542 0.747,-4.811 0.093,-1.633 0.374,-3.721 0,-5.898 -1.028,-7.443 3.647,-13.614 3.647,-24.323 0.092,-11.889 -2.617,-33.217 -6.357,-32.763 -2.525,0.363 -3.271,6.262 -3.552,7.714 -2.431,12.979 -3.646,23.687 -2.431,36.847 C -8.414,-21.237 -5.049,-8.168 0,0"
             style="fill:#00600f;fill-opacity:1;fill-rule:nonzero;stroke:none"
             id="path69" /></g><g
           style="fill:#00600f;fill-opacity:1"
           id="g71"
           transform="translate(638.9727,480.5684)"><path
             d="m 0,0 c -2.057,14.431 -5.89,46.468 -10.096,46.558 -7.479,2.36 -9.909,-28.134 -17.294,-25.956 -2.711,4.991 -3.739,25.321 -10.47,25.412 -6.356,-0.727 -7.291,-19.785 -12.525,-29.496 -0.375,9.167 -1.215,29.405 -8.6,31.492 -1.309,-0.09 -2.431,0.181 -2.431,-1.18 0.093,-4.719 1.869,-8.803 2.057,-13.431 0.56,-17.789 -3.084,-32.672 -5.421,-51.096 -0.282,-2.36 -1.03,-5.263 -0.842,-7.079 1.682,-6.081 9.348,-11.707 10.562,-7.169 1.403,10.527 7.946,38.48 16.64,60.806 4.486,-0.091 3.365,-14.975 3.458,-22.598 -0.56,-12.071 -6.169,-23.052 -7.572,-34.76 0.749,-4.81 3.834,-5.627 8.787,-5.808 8.787,-3.631 9.629,62.803 17.388,61.441 7.198,1.271 5.702,-42.564 8.413,-62.44 2.897,-22.598 -8.039,-45.831 -0.187,-46.103 11.217,1.724 18.041,9.347 18.228,18.695 C 8.132,-37.936 2.897,-25.048 0,0"
             style="fill:#00600f;fill-opacity:1;fill-rule:nonzero;stroke:none"
             id="path73" /></g><g
           style="fill:#00600f;fill-opacity:1"
           id="g75"
           transform="translate(476.0391,524.6763)"><path
             d="m 0,0 c -1.869,3.902 -3.458,8.621 -7.571,9.892 -4.395,1.361 -4.395,-6.534 -6.451,-10.709 -3.084,-6.353 -6.45,-12.433 -10.002,-17.698 -0.373,7.533 -0.56,13.886 -0.373,21.782 -3.459,3.358 -6.45,8.713 -10.563,9.62 -1.403,0.363 -4.301,1.089 -4.301,-2.088 0,-7.804 2.805,-11.889 3.084,-18.604 0.189,-4.356 0.468,-11.072 0.375,-14.884 -0.467,-15.247 -1.87,-24.958 -3.645,-39.207 -0.656,-5.355 3.738,-7.169 6.917,-9.075 1.028,-0.545 3.552,-2.995 4.206,0.726 -0.373,24.776 8.507,45.015 15.985,61.078 0.935,2.088 3.927,2.269 3.646,-0.544 -0.188,-2.179 -0.561,-5.173 -0.841,-6.989 -2.618,-19.148 -2.057,-33.67 -6.264,-51.639 -0.28,-6.262 7.386,-13.16 11.03,-19.241 0.936,-1.27 2.806,-1.361 2.431,0.998 -0.56,2.814 -1.682,9.167 -1.682,13.796 0,21.781 0.373,42.745 4.113,64.346 C 0.748,-5.446 0.655,-3.812 0,0"
             style="fill:#00600f;fill-opacity:1;fill-rule:nonzero;stroke:none"
             id="path77" /></g><g
           style="fill:#00600f;fill-opacity:1"
           id="g79"
           transform="translate(406.7998,553.2002)"><path
             d="M 0,0 C 1.447,5.879 2.678,12.205 2.309,17.67 2.041,25.423 -1.166,29.621 -4.545,33.32 L 119.279,0 Z M -14.892,4.329 C -14.95,2.921 -15.007,1.477 -15.063,0 h -7.344 c 1.078,12.305 2.321,24.429 3.87,35.64 0.116,0.473 0.206,0.931 0.27,1.372 l 5.736,-1.543 C -12.977,25.348 -14.186,17.876 -14.892,4.329 M -34.308,0 h -13.16 c -0.755,0.812 -1.708,1.455 -2.945,1.879 C -57.318,3.984 -59.33,5.35 -59.52,0 h -5.437 c 0.103,0.985 0.148,1.892 0.148,2.696 -0.093,5.173 -4.861,6.534 -8.132,4.9 C -75.833,6.193 -78.99,3.677 -82.255,0 h -19.524 c 0,0.265 -0.047,0.528 -0.047,0.79 -0.561,7.442 -2.99,15.972 -11.404,10.709 -3.416,-2.098 -6.45,-6.176 -9.541,-11.499 h -94.502 c 0.899,9.401 2.206,19.119 3.554,25.839 -4.301,5.808 -10.096,11.253 -14.584,15.791 -1.589,1.633 -4.205,0.454 -4.019,-1.089 1.648,-12.496 1.821,-26.617 1.332,-40.541 h -37.543 V 104.358 L -33.154,41.02 C -33.094,27.888 -33.616,14.055 -34.308,0 m -63.686,-26.437 c -0.163,9.582 -2.46,17.297 -3.479,24.232 h 17.36 c -4.616,-5.751 -9.385,-13.785 -13.881,-24.232 M -206.615,-60.47 c 0.561,-8.35 3.272,-30.676 0,-30.676 -3.926,1.089 -9.348,16.246 -11.872,27.318 -2.991,13.522 -0.561,25.502 -0.467,40.386 6.169,-11.617 10.563,-20.602 12.339,-37.028 M 135.608,5.28 c -2.781,0 -5.869,-2.497 -8.397,-5.131 L -7.345,36.357 c -0.375,0.42 -0.742,0.845 -1.096,1.28 -1.875,2.254 -2.642,2.851 -3.848,0.051 l -5.847,1.572 c -0.331,8.024 -9.752,10.233 -15.264,13.987 0.121,-3.259 0.228,-6.576 0.228,-9.94 l -237.565,63.927 V -2.205 h 39.664 c -0.425,-10.603 -1.211,-21.037 -1.997,-30.494 -0.935,-10.891 -0.56,-23.143 0.374,-28.951 1.589,-9.802 0,-29.677 3.553,-32.944 0.84,-1.725 1.962,-4.357 5.328,-4.175 4.393,1.18 3.459,11.979 3.459,18.514 1.588,-4.537 2.336,-6.262 4.58,-11.708 1.87,-4.537 5.889,-10.345 11.404,-10.255 7.011,0.181 6.076,17.426 5.981,19.966 -0.091,16.881 0.189,32.763 -0.185,50.189 -0.187,9.075 -2.804,19.058 -10.47,19.058 -4.206,0 -5.235,-3.176 -7.385,-3.266 -1.495,0 -1.962,0 -1.869,2.177 0.165,3.649 0.45,7.711 0.824,11.889 h 93.459 c -3.2,-5.802 -6.52,-12.815 -10.433,-20.239 -9.722,-24.957 -19.349,-45.286 -24.864,-75.327 -0.749,-4.083 -1.498,-12.252 -2.151,-16.789 -0.748,-6.081 2.617,-8.804 6.45,-12.071 H -269.62 v -343.238 l 184.246,-67.341 159.849,410.579 h -217.899 c 2.711,10.255 2.337,26.591 5.141,43.835 2.056,12.796 6.357,33.489 11.592,47.555 3.645,12.707 8.974,22.871 16.453,31.856 2.336,-5.173 2.242,-14.158 2.336,-20.057 0.374,-12.797 -1.309,-22.598 -2.619,-32.853 -1.494,-11.164 -4.766,-27.772 -6.729,-39.661 5.141,-2.541 5.889,-1.542 10.096,-5.082 2.711,-2.269 5.983,-0.545 5.702,2.269 1.028,17.334 -0.653,26.954 2.898,44.742 2.711,13.432 2.525,27.318 11.217,39.479 1.845,2.559 5.872,9.671 10.021,12.343 h 5.663 c 5.118,-3.814 -2.603,-10.802 -2.785,-16.427 -0.933,-24.323 -4.767,-47.374 -8.132,-71.243 -0.467,-3.54 -3.645,-7.079 -3.084,-10.981 0.561,-2.269 3.272,-1.181 7.291,-1.181 4.02,0 6.077,2.814 7.384,6.535 4.862,13.977 -1.682,18.606 2.058,44.379 0.934,6.898 2.524,21.419 1.308,29.042 -0.799,4.938 1.393,13.437 2.367,19.876 h 5.74 c 0,-0.315 0.027,-0.649 0.027,-0.999 0.186,-5.536 -1.404,-7.804 5.42,-8.894 2.805,-0.453 10.564,-2.268 11.031,-0.09 0.561,2.542 -1.028,3.721 -2.057,7.351 -0.255,0.937 -0.553,1.822 -0.935,2.632 h 11.604 c -1.275,-25.418 -3.029,-51.473 -2.816,-75.328 -4.206,-4.538 -4.206,-14.338 -9.254,-13.431 -6.17,1.27 -1.309,38.208 -3.927,59.081 -2.056,3.268 -5.796,6.717 -11.124,9.802 -0.186,-13.341 2.618,-28.406 2.991,-42.746 0.375,-15.338 0.375,-29.677 2.992,-35.576 0.748,-2.995 4.767,-8.44 9.816,-4.538 7.664,5.173 5.047,9.802 8.692,16.609 0.562,-4.81 1.496,-7.533 2.712,-13.341 2.056,-4.901 4.861,-16.427 8.038,-15.338 5.703,1.905 -1.589,15.61 -1.308,20.874 -0.654,21.872 0.749,39.116 2.336,59.717 0.831,11.127 1.683,22.732 2.67,34.215 h 7.453 c -0.527,-14.613 -0.942,-31.768 -1.427,-45.378 -0.282,-11.072 0,-29.95 0,-38.753 0,-9.439 1.961,-20.51 7.758,-20.601 5.981,0.091 8.599,7.714 9.44,12.705 5.517,-6.262 2.058,-15.882 10.75,-15.609 7.759,0.272 11.124,23.505 14.583,35.303 0,0.999 -0.374,3.45 -1.122,4.175 -3.365,-8.168 -6.45,-17.788 -13.274,-25.229 -0.935,0 -2.243,2.177 -2.335,4.446 -0.095,10.619 0.747,20.148 4.485,25.684 5.422,7.896 7.759,18.877 9.723,27.408 -0.188,5.173 3.364,19.241 -3.366,20.057 -0.841,-0.453 -1.308,-1.27 -2.431,-1.542 1.87,-15.065 -1.961,-28.952 -7.198,-42.293 -1.962,6.081 -1.588,10.347 -1.213,16.608 1.12,6.354 5.7,13.07 1.681,19.513 C 4.646,-27.979 -1.617,-43.318 0.252,-53.754 -1.056,-65.462 1.468,-78.803 -3.3,-86.88 c -1.309,-2.178 -1.589,-4.991 -3.552,-6.535 -2.804,12.343 0.187,29.133 -0.654,40.024 -0.748,10.527 1.777,28.86 4.393,41.112 0.616,2.858 1.595,6.336 2.558,10.074 h 125.658 c -1.3,-1.539 -2.289,-2.866 -2.768,-3.449 -1.682,-1.815 -3.085,-2.723 -2.617,-5.173 0.935,-4.992 8.787,-2.995 11.218,0 3.365,4.175 6.73,9.892 6.73,14.067 -0.468,1.634 -0.468,1.816 -2.058,2.04"
             style="fill:#00600f;fill-opacity:1;fill-rule:nonzero;stroke:none"
             id="path81" /></g><g
           style="fill:#00600f;fill-opacity:1"
           id="g83"
           transform="translate(502.5479,395.1826)"><path
             d="M 0,0 3.673,9.439 3.832,9.381 c 3.617,-1.327 6.091,-3.382 7.413,-6.156 1.32,-2.779 1.31,-5.896 -0.035,-9.351 -1.287,-3.31 -3.337,-5.578 -6.146,-6.806 -2.806,-1.228 -5.912,-1.217 -9.312,0.029 -1.855,0.68 -3.481,1.653 -4.873,2.911 -1.39,1.258 -2.453,2.72 -3.188,4.374 -0.684,1.561 -1.039,3.183 -1.039,4.847 -0.018,1.665 0.278,3.329 0.923,4.988 0.82,2.105 1.917,3.807 3.279,5.092 1.359,1.285 3.089,2.253 5.173,2.896 l 1.06,-2.674 C -4.693,8.985 -6.159,8.208 -7.3,7.196 -8.439,6.183 -9.318,4.894 -9.925,3.337 c -1.085,-2.789 -0.977,-5.466 0.315,-8.021 1.294,-2.555 3.483,-4.403 6.556,-5.531 2.609,-0.956 5.01,-0.944 7.199,0.032 2.188,0.977 3.785,2.746 4.778,5.299 0.829,2.13 0.875,4.203 0.138,6.22 C 8.324,3.353 6.968,4.849 4.994,5.814 L 2.265,-1.202 Z m -4.098,-43.67 -22.787,11.775 23.211,6.73 -16.246,8.493 1.035,2.658 22.744,-11.833 -23.005,-6.735 16.083,-8.429 z m -4.317,-11.096 -21.897,11.378 1.087,2.797 21.891,-11.398 z m -17.213,-11.116 3.672,9.44 0.159,-0.058 c 3.618,-1.326 6.092,-3.381 7.414,-6.156 1.321,-2.778 1.309,-5.897 -0.035,-9.351 -1.287,-3.309 -3.337,-5.577 -6.145,-6.805 -2.808,-1.228 -5.915,-1.218 -9.313,0.029 -1.854,0.68 -3.481,1.651 -4.873,2.91 -1.392,1.259 -2.453,2.721 -3.187,4.374 -0.685,1.561 -1.041,3.183 -1.041,4.848 -0.016,1.664 0.279,3.329 0.924,4.987 0.819,2.106 1.917,3.808 3.277,5.093 1.361,1.284 3.091,2.252 5.174,2.896 l 1.061,-2.674 c -1.782,-0.546 -3.247,-1.323 -4.387,-2.335 -1.14,-1.013 -2.02,-2.302 -2.625,-3.859 -1.085,-2.789 -0.978,-5.467 0.314,-8.022 1.294,-2.555 3.483,-4.404 6.555,-5.53 2.61,-0.957 5.012,-0.945 7.2,0.031 2.189,0.977 3.786,2.746 4.779,5.299 0.829,2.129 0.875,4.204 0.139,6.221 -0.738,2.017 -2.094,3.512 -4.068,4.478 l -2.729,-7.016 z m 1.888,-28.281 -21.898,11.379 1.088,2.797 21.89,-11.4 z m -10.35,-26.606 -22.787,11.775 23.21,6.729 -16.245,8.494 1.034,2.658 22.745,-11.833 -23.007,-6.735 16.083,-8.429 z m -5.176,-5.811 2.413,-1.289 -4.645,-11.943 -21.898,11.377 4.482,11.522 2.383,-1.227 -3.458,-8.89 6.537,-3.392 3.452,8.874 2.352,-1.211 -3.459,-8.89 8.198,-4.297 z m -10.038,-33.297 -21.897,11.379 1.402,3.605 c 0.76,1.952 1.403,3.299 1.928,4.032 0.523,0.731 1.164,1.32 1.906,1.753 0.806,0.471 1.681,0.741 2.604,0.801 0.926,0.06 1.881,-0.086 2.843,-0.438 1.918,-0.704 3.213,-1.889 3.872,-3.542 0.661,-1.655 0.596,-3.545 -0.204,-5.658 l 13.341,2.964 -1.256,-3.225 -13.189,-2.669 -0.442,-1.135 10.114,-5.241 z m -11.106,8.927 0.706,1.813 c 0.438,1.13 0.725,1.987 0.854,2.567 0.131,0.579 0.178,1.119 0.178,1.605 -0.036,0.782 -0.354,1.483 -0.859,2.091 -0.503,0.612 -1.188,1.076 -2.051,1.393 -1.298,0.475 -2.372,0.419 -3.215,-0.173 -0.844,-0.592 -1.701,-2.01 -2.568,-4.239 l -0.463,-1.19 z m 5.92,-14.768 2.413,-1.289 -4.646,-11.942 -21.898,11.378 4.481,11.521 2.385,-1.226 -3.459,-8.892 6.537,-3.392 3.452,8.875 2.352,-1.211 -3.459,-8.889 8.199,-4.298 z m -33.397,-25.674 1.099,2.826 18.869,-2.205 -13.941,14.872 1.158,2.98 19.173,-21.017 z m 12.884,-34.548 -22.787,11.774 23.21,6.73 -16.245,8.493 1.034,2.658 22.745,-11.833 -23.006,-6.735 16.083,-8.428 z m -5.175,-5.812 2.412,-1.288 -4.646,-11.945 -21.898,11.379 4.483,11.521 2.384,-1.226 -3.459,-8.892 6.537,-3.391 3.452,8.875 2.352,-1.212 -3.459,-8.889 8.2,-4.298 z m -7.977,-27.995 -19.524,10.122 -2.186,-5.617 -2.386,1.222 5.48,14.085 2.378,-1.238 -2.21,-5.683 19.507,-10.171 z m -11.698,-30.074 -22.788,11.773 23.21,6.732 -16.244,8.492 1.034,2.659 22.745,-11.833 -23.006,-6.735 16.082,-8.429 z m -5.174,-5.811 2.411,-1.29 -4.646,-11.943 -21.897,11.379 4.481,11.521 2.384,-1.227 -3.459,-8.891 6.537,-3.391 3.453,8.875 2.351,-1.212 -3.459,-8.889 8.199,-4.299 z m -11.883,-38.033 -21.897,11.378 1.17,3.009 c 0.982,2.525 1.75,4.263 2.297,5.215 0.551,0.95 1.152,1.719 1.797,2.295 1.504,1.344 3.288,2.165 5.345,2.461 2.058,0.3 4.186,0.05 6.376,-0.754 2.065,-0.755 3.83,-1.849 5.297,-3.269 1.465,-1.421 2.475,-3.023 3.021,-4.792 0.418,-1.36 0.535,-2.806 0.346,-4.326 -0.185,-1.521 -0.887,-3.855 -2.112,-7.001 z m -1.351,3.919 0.564,1.447 c 0.886,2.28 1.439,3.899 1.664,4.843 0.221,0.949 0.299,1.813 0.237,2.579 -0.16,1.802 -0.847,3.408 -2.045,4.805 -1.196,1.399 -2.828,2.482 -4.88,3.235 -1.73,0.634 -3.382,0.853 -4.947,0.661 -1.568,-0.196 -2.923,-0.785 -4.06,-1.762 -0.53,-0.443 -1.031,-1.053 -1.487,-1.833 -0.456,-0.781 -0.99,-1.943 -1.588,-3.478 l -0.607,-1.562 z m -30.212,-17.386 1.057,2.717 13.328,-6.929 c 0.479,-0.245 0.883,-0.448 1.207,-0.599 0.324,-0.151 0.586,-0.265 0.787,-0.339 1.646,-0.604 3.071,-0.644 4.263,-0.123 1.197,0.518 2.108,1.582 2.728,3.178 0.441,1.13 0.626,2.201 0.567,3.203 -0.062,1.008 -0.378,1.942 -0.944,2.798 -0.759,1.123 -2.493,2.401 -5.188,3.808 -0.249,0.124 -0.443,0.228 -0.568,0.297 l -11.735,6.133 1.048,2.69 12.306,-6.417 0.012,-0.004 c 3.441,-1.782 5.644,-3.463 6.606,-5.023 0.73,-1.198 1.13,-2.543 1.198,-4.018 0.067,-1.477 -0.211,-3.014 -0.828,-4.6 -0.883,-2.268 -2.178,-3.866 -3.877,-4.776 -1.703,-0.907 -3.56,-0.999 -5.562,-0.263 -0.762,0.279 -1.664,0.665 -2.697,1.15 -1.032,0.49 -2.272,1.117 -3.713,1.878 z m 16.248,-25.901 -19.524,10.122 -2.187,-5.617 -2.384,1.221 5.479,14.087 2.38,-1.239 -2.212,-5.684 19.507,-10.171 z m -13.429,-22.15 -0.949,2.605 c 1.694,0.075 3.008,0.364 3.927,0.868 0.92,0.508 1.589,1.294 2.001,2.351 0.527,1.353 0.544,2.593 0.056,3.701 -0.486,1.106 -1.408,1.914 -2.748,2.405 -0.838,0.308 -1.619,0.367 -2.322,0.178 -0.709,-0.186 -1.805,-0.899 -3.277,-2.124 -1.899,-1.585 -3.438,-2.553 -4.607,-2.902 -1.169,-0.349 -2.407,-0.286 -3.698,0.187 -1.967,0.721 -3.348,1.933 -4.125,3.622 -0.782,1.694 -0.793,3.523 -0.035,5.475 0.504,1.293 1.24,2.324 2.199,3.077 0.959,0.758 2.199,1.289 3.703,1.588 l 0.959,-2.568 c -1.162,-0.132 -2.115,-0.438 -2.836,-0.916 -0.726,-0.477 -1.259,-1.146 -1.591,-2 -0.459,-1.178 -0.467,-2.271 -0.024,-3.27 0.445,-0.999 1.244,-1.714 2.386,-2.133 1.532,-0.563 3.364,0.066 5.494,1.878 0.372,0.313 0.663,0.559 0.859,0.729 1.555,1.255 2.914,2.016 4.066,2.272 1.152,0.257 2.433,0.13 3.826,-0.381 2.129,-0.78 3.576,-2.04 4.333,-3.771 0.757,-1.732 0.709,-3.699 -0.141,-5.886 -0.622,-1.597 -1.568,-2.821 -2.825,-3.66 -1.26,-0.839 -2.806,-1.285 -4.629,-1.285 z"
             style="fill:#00600f;fill-opacity:1;fill-rule:nonzero;stroke:none"
             id="path85" /></g></g></g></g></svg>
