<svg xmlns="http://www.w3.org/2000/svg"
    xmlns:dc="http://purl.org/dc/elements/1.1/"
    xmlns:cc="http://creativecommons.org/ns#"
    xmlns:rdf="http://www.w3.org/1999/02/22-rdf-syntax-ns#" width="639.6" height="215.348">
    <metadata>
        <rdf:RDF>
            <cc:Work rdf:about="">
                <dc:format>image/svg+xml</dc:format>
                <dc:type rdf:resource="http://purl.org/dc/dcmitype/StillImage" />
                <dc:title>Gumbo Millennium logo</dc:title>
            </cc:Work>
        </rdf:RDF>
    </metadata>
    <defs>
        <clipPath id="gumbo-clip">
            <path d="M0 161.511h479.7V0H0z"/>
        </clipPath>
    </defs>
    <g clip-path="url(#gumbo-clip)" transform="matrix(1.33333 0 0 -1.33333 0 215.348)" fill="#ffffff">
        <path d="M281.3 161.145c2.4-3.5 6.7-5.6 7.6-9.8l-.2-19.2c-1.1-3.9-.9-8.7-1.2-12.7-.4-5.2-1.3-9.2-1-14.2-1.5-3 .2-7.3-1.4-10.3.7-4.9-1.1-8.8-2.2-13l-.2-12.2-.5-1.2.3-27.6c1.1-2.9 1.9-7.2.2-10.1-1 .1-1.6 1.2-1.9 1.9-2.3 5.3-6.7 9.5-6.3 15.9-.9.9 0 3.1-1.6 3.1-2.2-4.3-3-10.3-8-12.2-1.5-.6-2.8 1.1-3.6 2.4-1.6 2.7.2 7-1.4 9.8l.2 22.1c1.2 4.2 1 9.3 1.2 13.7.4 6.1 1.6 10.7.8 16.8.7 1.1 1.6-.3 2.4-.5 1.8-2.9 5.8-3.2 6.4-6.3 1.1-5.2-.6-10-.9-15.1l-.5-.5c.8-5.1-1.3-9.6-1-14.8l-.7-1.7.3-13c.2-.3.5-.6.9-.5l5.8 11.6.2 27.3c1.1 2.5-.2 6.1 1.2 8.4-.7 5.7 1.4 10.1 1 15.6l.5.5c.7 3.3.2 7.1.9 10.3 1 4.4-.6 9.4.7 13.5v21.6c.5.7 1.5 1.1 2 .4M296.9 147.945c2.5-4.2 6.8-8.1 6.9-13.2.1-4.5.1-9.4-.9-13.9-.7-2.9-2.4-5.4-3.4-8.1-.8-2.6-.2-5.6-1-8.2-1.1-4.1.2-9.2-1.4-13.2l-.2-13.2c-.9-2.4-.2-5.4-1.2-7.7l.2-20.4c.2-.4.6-.1 1-.2 1.3 2.2 3.8 4.1 4 6.7.4 3 .2 6.4-.7 9.1-1.2 3.9 1.4 6.9 1 10.8 1.2 2.1 1 4.8 1.4 7.2 1.2 6.1 2.5 12.4 7.7 16.1.9.6 1.1-.8 1.7-1.2.6-2.4-.5-4.7-1.5-6.7-2.1-4.5-1.1-10.4-1.2-15.4.3-.3.6-.6 1-.5 4.3 7.5 5.7 16.1 5.3 25.5 1 1.4-.2 3.8 1.9 4.5 1.4-.4 2.2-1.9 2.9-3.1.1-7.9-1.9-14.9-4.1-22.1-1.7-5.8-3.5-11.6-7-16.8l-.4-13.6c-.5-.4-.2-1-.3-1.5l1.5-1.4c4.1 4.6 7.3 9.9 8.4 16.1.1.8.5 1.5 1.4 1.6 1.9.4 1.2-2.5 1-3.6-1.5-7.6-4.9-14.5-7.5-21.8-.6-1.8-2.1-3.9-4.5-3.4-2.9 3.4-3.9 7.5-6.8 10.8-1 0-1.5-1-2.1-1.9-1.7-2.3-1.7-6.9-5.5-6.5-3.7 3.2-4 7.9-4.6 12.3-.4 2.6.6 5.6-1 7.7 1.1 9.1-2.1 17.4 0 26.1.5 2-1.8 3.6 0 5.3.4 3-.8 6.5 1 8.9.2 3.7-.6 7.8.7 11l.3 18.5.4 1.7.3 14.6c1.1 2.4-.3 5.9 1.2 8.2 2.2-.7 3-3.2 4.1-5.1M226.6 130.445c.7-1.7-.3-4.1.7-5.7-.2-6.2 1.9-11.2 2.1-17.3.1-1.8-.1-4.1 1.2-5.3l6.8 11c4.9 4.3 9.2 10.6 13.6 15.6 1.8.3 2.8-1.8 3.9-2.8v-48.8l-.5-1.6-.3-14c-.8-5.5.6-12.1-2.4-16.8-2.1-3.2-6.8-1.6-10.5-1.9-1 .6-2 1.1-2.2 2.2-.5 3.5 1.9 6.8 1.5 10.8.9.8.3 2.3.7 3.3 1.6 4.3 2.3 8.9 2.9 13.5.6 4.6 1.8 8.9 1.7 13.9 1.1 1.9-.3 4.8 1.1 6.5.4 3.4.6 6.6 1.2 10.1.6 2.9-.2 6.5 1.2 9.1-.1 2.3.4 4.9-.4 6.9-1.7-.3-2.8-2.5-4.1-3.8-6.2-6-9-13.3-10.1-21.4-2.9-3.3-2.4-7.9-4.8-11.7-2.7-4.3-.5-10.8-1.7-15.6-.7-2.8-.2-5.9-.7-8.7-.8-4.6.1-9.4-.9-13.6l-.8-.5-9.6 4.8c-1.3 2.1.5 4.6.3 7.2 1.1 1.3-.3 3.6 1.2 4.8.7 6.2 2.6 11.7 3.3 18.2.5 4.3-.2 9.4 1.2 13.5l.3 12.9c.7 1.6.6 4.1 0 5.8-1.1 2.5 1.2 7.1-1.9 8.1-1.2-2.3-3.4-4.2-5.1-6.4-4.3-5.8-5.2-13-8.1-19.5-2.4-5.3-3.5-11.4-4.6-16.8-.6-2.8-1.3-5-1.4-7.7l-2.7-14.4c-.8-4.1-.8-8.5-1.4-12.9-.4-2.8.3-6.2-.7-8.9-.8-2.1-.9-4.4-1.5-6.5-.6-2.5 1-6.4-2.1-7.2l-2.4 1.9-8.7 8.9c-1.5 1.8-.1 4.4 0 6.5.5 7.8 1.1 14.9 3.6 21.6.7 1.9.8 4.1 1.7 6l4.3 11.8c2.8 8.7 6.9 16.9 10.6 25.4 4.1 9.7 9.7 18.7 16.5 27.4 1.3 1.6 2.3 4.6 4.8 5 1.7.3 2.6-1.7 3.2-2.9"/>
        <path d="M271.7 120.145c.9-2.1.8-4.9.4-7.2-2.2-2.3-5.1-.5-7.2.7-3 1.7-1.2 6.2-1.4 9.4 0 .9 1.1 2.2 2.2 2.1 2.8-.1 3.9-3.6 6-5M404.4 121.545c-1.8-5-2.9-12.3-9.1-13.4-2.1-.4-4 1.4-4.4 3.4-.8 4.2 4.9 3.5 6 6.7 2.9.7 4.8 7.4 7.5 3.3M37.2 116.545c2.8-2.3-1.1-4.4-.5-7-.9-1-2.4-2.8-3.8-1.9-1.9 1.2-2.3 3.5-1.7 5.5.3 1.1 1.9 2.1.7 3.2-3.3.1-7.2.3-10.3-.8-2-.7-3.8-1.8-4.8-3.6-3.4-5.8-5.4-12-5.5-19.6-.1-2.2-.4-4.5-.5-6.8 1.4-1.7.1-4.6 1.4-6.4.8-9.4 4.5-19.3 13.5-23.6 3.2-1.5 8.7-3.2 11 .5 3.6 5.8 6.5 12.7 4.3 20.4-4.3.3-9.1-.6-12.9 1.2-3.3 1.6-8.3 1.8-8.7 6.5l.8.7 12.9.3c2.4.9 5.4.1 7.7 1.2 3.8-.8 9 3 10.6-2.4.2-.2.3-.6.7-.5l.5.5.7 19.2c.4 2.7.3 5.6 2.4 7.6 2.2-.1 4.5-.4 5.7-2.4-.5-4.7-2-9.1-2.6-13.6-.5-3.4-.8-5.8-1.2-9.2-.4-2.9.3-6.5-1.2-9.1.2-3.6-.8-6.8-1.4-10.1.4-.4-.1-1.6.9-1.6l1.5 2.4 4.5 14.1 3.6 13.5c.6 2.7 1.8 5.1 1.7 8.1 1.3 2.4-.2 6.2 1.7 8.2 2 2.1 4.7-1.6 6.7-3.1-.8-8.7-2.3-16.8-3.6-25.5-.3-2-.4-4.2-1-6.2-1.8-6.8 1.4-12.9.5-19.9 1.6-1.7-.1-4.7 1.5-6.3-.1-.6.3-1.4-.5-1.7-5 1.4-4.8 7.5-6.5 11.6-1.6 3.6-.2 8.6-2.4 12h-.7c-2.2-6.9-4.8-13.5-7-20.4-.4-1.3-2.3-2.4-3.8-1.5l-1.2 1.2.2 19c-.6 3.4 2.3 6.2.3 9.3-1.8-.6-3.9-.6-5.3-2.1.2-3.5 2.6-6.9.7-10.3.4-5.8-1.4-10.8-3.1-15.6-1.4-3.9-4.9-7.1-7.9-10.1-4.3-4.3-12.2-3.8-17.3-1.9-8.2 2.9-10 11.6-13 18.4-2.1 4.8-2.8 10-3.1 15.4-.8 1.1-.2 3.7-2.4 3.4v11c2.8.5 1.5 4.4 2.6 6.5-.2 4 2 6.9 2.7 10.8 1 5.9 7 12.3 13.4 12.7 2.6.1 4.2 1.9 6.5 2.4 4.8.9 8.8-1 12-3.6M108.2 106.445c-.2-2.1.6-4.8-.7-6.5 1-4.2-1.9-7.3-.2-11.2 1.2-.2.6 1.4 1.4 1.6 3.3 6.8 2.6 15.7 9.9 20.4 2.6-.8 5.3-2.7 6.2-5.2 1.3-4 .8-9 .5-13.2l-.5-.5-.2-33.9-.8-1.6v-14.9c-.1-.5-.6-.8-.9-1.2h-.7c-4 3.3-5.4 8.4-9.4 11.7 1 5.6.5 11.7 1.7 17.3.4 2.1-.2 4.6.7 6.5 1.1 2.4.7 5.4 1.4 7.9 1.3 4.3.6 9.2 1.5 13.5.3 1.4-.1 2.8-.5 4-2.8-.7-2.3-4.1-3.6-6-.6-.8-.8-1.6-1.2-2.6-2.8-7.7-4.3-15.8-5.5-24.2-.4-2.3-.3-4.8-1.5-6.8.7-4.4-1.1-7.8-1.2-12-.5-.7-1.6-1.6-2.1-.7-2.6 4.7-10.8 7.7-7.2 14.4-.4 6.1 1.5 11.2 1.2 17.3.9 1.9-.2 4.6.7 6.5.9 2 1.1 4.3 1.4 6.5.3 2.1.8 5.2-1.2 6.2-2.1-8.6-6.3-16.3-7.6-25.2-.9-5.1-2.6-10.1-2.7-15.4 0-3.3-.5-6.1-1.4-8.8-2.6 2.4-9.1 2-7.7 7.4 1.4 5.8 2.8 11.7 2.6 17.8-.1 7.6.7 14.1 1 21.6.1 3.7.3 8 .5 12 .5.7 1.2 1.7 2.1 1.9 2 .4 3.9-.4 4.6-2.2.7-1.8 1.2-3.8 1.4-5.7.4-3-.4-6.4.5-9.2 1.3.5 2.1 2.1 2.4 3.4 1.4 5.9 2.8 11.7 7.9 15.4 2.9-1.1 5.1-4.5 7.2-6.3M172.3 109.145c-2.5-6.5-3.9-13.4-4.3-20.7l-.5-.5v-28.5c1.5-2.2-.2-5.9 2.4-7.5 1.2 1.7 2 3.6 2.4 5.6.8 3.2 2.2 5.9 2.2 9.3l.5.7v17.6c-.8.9-.9 2.1-1.2 3.3-1.3 5.1-2.8 10.5-1.2 15.9.3 1.2 2.1 2.1 3.1 1.2 4.7-4.5 6-10.6 6.7-16.8l-.2-15.2c-1-4.2-.9-8.9-2.9-12.7l-5.8-11.3c-.5-1.7-1-4.1-3.1-4.5-3.9-.8-6.7 3.5-8.2 6.7-3.1 7-3.9 15.2-5.2 22.8-.6 2.9-.9 6.5.9 8.9.3 8 .7 16 3.4 23 .8 2.3 2.3 4.5 4.3 6 2.7 0 5-1.5 6.7-3.3M336.2 99.045c1.4-5.3-1.9-9.6-.2-14.7.4-.1.8.2.9.5.6 1.3 1.5 2.4 2 3.6 2 5.4 4.6 10.7 7.9 15.6 1.4 2.1 2.9 0 3.6-1.2 1.9-3.3 5-6.8 4.3-10.5-.7-3.9-1.3-7.7-2.2-11.8-.7-3.5-.4-7.6-1.4-11-1.5-5.4-.6-11.7-1.4-17.1-1-6.5 1.1-12.3 1.4-18.5.1-1 .3-3.2-1-2.8-5.4 1.6-4.1 8.6-8.4 12-1 3.4.3 6.2.8 9.6.2 2 .8 4 1.4 6 1.4 4.5.2 9.9 1.4 14.4l.3 14.8c1 1.3.2 3.1-.3 4.4-.8-1-1.9-2.3-2.4-3.6-1.9-6.3-6.3-11.5-6.9-18.3-1-.3-.3-1.2-.7-1.9-2.6-4-1.5-9.7-2.4-14.4-.7-3.1-1.1-6.2-1.2-9.4-2.3-1.7-4.4 1.3-6.5 2-1.6 1.8-.5 5-.5 7.2 0 7.1 1.1 12.8 1.4 19.9.2 2.9.7 6 1 8.9.9 7.2-.4 14.8-2.9 21.3-.6 1.6-.4 3.9 1.7 4.6 4.3-1.2 9.3-5.5 10.3-9.6M424.8 96.645c0-3.8-1.2-7.5-1.5-11.3-.6-8-2.9-15.1-3.3-23l-.5-.8v-13.4c.9-2.7 1.1-5.7 2.6-8.2-.2-.4-.2-.9-.7-1.2-3.5 1.6-5 5.6-6.9 8.7-1.5 2.3-1.7 5.1-2 7.9-1.3.2 0 2.2-1.6 1.7-1.3-3.5-2.8-7-4.4-10.3-1.2-2.7-4.3-6.5-7.4-6.3-3.1 3.6.9 8.1-.7 12.5-1 .8-1.8-.5-2.7-.7-2.9-3.4-3.4-8.7-8.1-10.6-1.6.3-3.2 1.6-3.9 3.1l-.2 25.7c1.6 2.8-.1 7 1.4 9.9-.8 5.4 1.6 9.6 1.7 14.6.1 2.8.4 5.7 2.7 7.4 2.6-1.2 5-3 7.4-5 .3-6.2-3.2-11.2-3.6-17.5-.3-5.2-2.3-10.2-2.2-15.4.2-4.9-1.9-8.6-.2-13.2 3.5-.1 2.6 5.2 6.5 4.6 1.3 1.4 1.5 3.3 1.7 5.3l1.9 8.6.2 14.4c.7 4.7.7 10.4 0 15.1 1.2 1.4 3.4 1.8 4.8 1 1.6-1 2.1-2.9 2.4-4.6l-.2-19.2-.5-.5c-.2-3.2.6-6.8-.7-9.6.3-1.7-.8-4.5.9-5.2.9.6.2 2 1.2 2.6 1.8 6.1 3.2 12.2 4.1 19 .3 2.3-.1 5.1 1 7.2-.3 3.5 1.5 6.2 1.2 9.8.6 1.2.5 2.9 1.9 3.6 3.6-.8 7.7-2.6 7.7-6.7M139.4 100.945c.3-9.5-3.7-20 .8-28.3 3.3-6.3 3-13.8 8.6-19 .5 0 .9.1 1.2.5 0 .8.1 1.6-.5 2.2-.5 4.4-1.3 8.9-1.4 13.4-.2 4.9-1.3 9.3-1.7 13.9-.2 2.3-1.1 4.3-1.4 6.5-.7 4.6-2.3 8.6-4.4 12.5-.7-.2-.4-1.3-1.2-1.7m-4 51.1l8.6-8.9c1.2-4.5-1.2-8.2-.7-12.7-1-1.8.2-4.6-.7-6.5-1.2-2.4-.1-5.6-1.5-7.9.6-2.1-1.2-3.7 0-5.5 3.5-.6 7.1 3 10.3-1.7 3.1-4.4 1.2-10 3.4-14.4l-.2-39.3c-1.2-3.9-.4-8.7-3.9-11.3-2.9.9-5.3 4.1-6.5 6.9-1.5 3.7-3.1 7.3-5 10.8-.6.3-.7-.4-1-.7-.3-4.1.8-8.7-.9-12.2-2.4-1.3-2.4 2.1-3.6 3.1-.6 2.5-1.9 4.6-1.7 7.4l-1.2 4.4-.2 37.4c-1.7 6.5 1 12.5.4 19.2l.5 1.7-.2 28.1c-.8 1.2-.5 3.1-.3 4.5 2.2 2.3 3.7-.9 4.4-2.4M369.1 95.945c-1.6-3 .1-7.2-1.4-10.1.5-.7-.4-2.2.9-2.4.7 1.1.5 2.6 1 3.8 1.6 4.4 4.8 8.1 4.5 13.2.6.9 1.9 2.5 2.7 1.5 1.6-2.3 5-3.7 5-7 .1-2.6-.1-5.1-.7-7.4l-.2-13.2-.5-1.7v-30.3c-.2-.6-.8-.9-1.2-1.4-1.6-.4-3 .6-3.6 1.9-1.4 3.2-4.1 5.4-4.3 9.4-.3 4 .3 7.9 1.2 11.7.4 1.8.2 3.8 1.4 5.3.1 5.1.6 9.9 1.4 14.7-.5.7.4 2.4-.9 2.4-1-.1-.1-1.5-.7-2-.8-2.8-2-5.5-2.4-8.6-.3-2-1.7-3.7-2.4-5.5-2.7-6.4-3.5-13.4-6.5-19.7-1.2-2.5 2.5-7-1-8.4-1.2-.5-2.4.8-2.9 1.9-.4 1.1-2.4 1.8-2.8 3.4-.6 2.1-3.6 4.1-1.5 6.5.9 6.5 2.3 12.6 3.4 19.2.4 2.4 1.2 5 1.2 7.4.1 5.9 1.3 10.6.9 16.3 1.9 1.7-1.9 6.9 2.4 5.5 2.9-.9 5.8-3.6 7-6.4M434.9 93.245c.8-2.7.5-5.8 1.6-8.4l.3-6.9c.6-.5 1.2-.6 1.4.2 1.5 6.3 2.8 12.6 6.7 17.8.7.8 2.1 1.5 2.9.7 5.5-5.2 3.7-13.5 6-19.9.4-.1.5.3.7.4.2 2.2 2.6 3.2 2.4 5.1 3.5 4.8 3.7 11.1 8.2 15.3 1.1 1.1 2.8-1 3.1-2.1 2.2-6.5 2.9-13.5 3.9-20.4 1.4-1.7.9-4.3 1.2-6.5 1-8.4 2.7-15.6 2.6-24.5 0-4.3 2.6-8.1 2.9-12.5l.9-.7v-24c-2-1.3-3.3-4.9-6.2-5.3-2.5-.3-5.6-3.5-7.2.3.5 3.9.8 8.5 1.4 12.7.5 2.8.4 6.4-.2 9.1-.8 3.8.6 8.1-.7 11.5l-.3 21.6c-1 2.3-.3 5.3-.9 7.7-1.5 5.7-1.8 12-2.2 17.8-2.6 1.1-1.7-2.8-3.3-3.9-1.4-5.7-1.8-11.9-5.3-16.8.1-1.9-.1-3.7-1-5.2l-.2-16.6c-1.1-1.5.4-4.5-2.2-5-3-.7-5.2 1.8-6.9 3.8-1 1.1-1.5 3.1-.8 4.6.7 1.2.2 2.9 1.2 4 .3 2.3 0 4.7.8 6.8 1.3 3.8-.5 8.7.9 12.4l-.2 18-.7.5c-3.2-2.2-2.2-6.4-4.1-9.3l-3.4-15.9c-.5-4.5-2.5-8.3-2.6-13.2-.1-3.6-.6-6.9-1.2-10.5-.4-2.2-3-.5-4.1.2-5.1 3.4-4.5 9.6-4.1 15.1.4 4.2 1.4 7.1 1 11.1 1.2 2.1 1.1 4.8 1.4 7.2.4 2.6.1 5.1.7 7.4v21.6c.3 1.2 1.8 1.3 2.4.7 1.8-1.6 2.5-3.8 3.2-6"/>
    </g>
</svg>
