<?xml version="1.0" encoding="UTF-8" standalone="no"?>
<svg
   xmlns:dc="http://purl.org/dc/elements/1.1/"
   xmlns:cc="http://creativecommons.org/ns#"
   xmlns:rdf="http://www.w3.org/1999/02/22-rdf-syntax-ns#"
   xmlns:svg="http://www.w3.org/2000/svg"
   xmlns="http://www.w3.org/2000/svg"
   xmlns:sodipodi="http://sodipodi.sourceforge.net/DTD/sodipodi-0.dtd"
   xmlns:inkscape="http://www.inkscape.org/namespaces/inkscape"
   width="645.93494"
   height="215.34615"
   version="1.1"
   id="svg979"
   sodipodi:docname="logo-text.svg"
   inkscape:version="0.92.4 (5da689c313, 2019-01-14)">
  <metadata
     id="metadata983">
    <rdf:RDF>
      <cc:Work
         rdf:about="">
        <dc:format>image/svg+xml</dc:format>
        <dc:type
           rdf:resource="http://purl.org/dc/dcmitype/StillImage" />
        <dc:title></dc:title>
      </cc:Work>
    </rdf:RDF>
  </metadata>
  <sodipodi:namedview
     pagecolor="#ffffff"
     bordercolor="#666666"
     borderopacity="1"
     objecttolerance="10"
     gridtolerance="10"
     guidetolerance="10"
     inkscape:pageopacity="0"
     inkscape:pageshadow="2"
     inkscape:window-width="1920"
     inkscape:window-height="1024"
     id="namedview981"
     showgrid="false"
     fit-margin-top="0"
     fit-margin-left="0"
     fit-margin-right="0"
     fit-margin-bottom="0"
     inkscape:zoom="1.7708778"
     inkscape:cx="325.50911"
     inkscape:cy="107.67361"
     inkscape:window-x="0"
     inkscape:window-y="28"
     inkscape:window-maximized="0"
     inkscape:current-layer="svg979" />
  <defs
     id="defs969">
    <clipPath
       clipPathUnits="userSpaceOnUse"
       id="a">
      <path
         d="M 0,226.772 H 566.929 V 0 H 0 Z"
         id="path966"
         inkscape:connector-curvature="0" />
    </clipPath>
  </defs>
  <g
     clip-path="url(#a)"
     transform="matrix(1.33333,0,0,-1.33333,-58.449985,258.85404)"
     id="g977">
    <path
       d="m 446.865,155.358 c 0.77,-0.439 1.057,-1.42 0.78,-2.263 -1.61,-4.911 -2.964,-11.297 -8.73,-12.32 -2.1,-0.4 -4,1.4 -4.402,3.4 -0.799,4.2 3.797,5.283 6,6.7 1.89,1.215 4.068,5.784 6.351,4.483 m 13.583,-17.31 c -2.565,-0.072 -2.418,-2.134 -2.784,-5.05 -1.172,-9.959 -0.074,-19.49 -1.76,-29.165 -0.806,-4.909 -4.616,-14.796 -6.96,-10.243 -0.513,9.39 1.026,16.645 1.467,23.972 0.365,5.335 0.438,11.167 -1.394,15.151 -0.878,1.991 -3.882,1.85 -5.274,-0.285 -1.538,-2.277 -0.806,-11.025 -0.44,-16.218 2.71,-17.499 -6.007,-42.11 0.22,-43.39 3.15,-0.64 5.129,3.911 6.96,8.606 1.172,3.06 2.272,6.83 3.737,9.745 1.172,-7.468 9.305,-22.407 11.576,-20.059 2.198,1.85 -2.785,6.401 -2.858,10.741 -1.245,13.73 1.465,32.152 4.616,47.018 0.806,3.77 -3.59,9.248 -7.106,9.177 m 59.931,-41.612 c -1.612,11.31 -4.616,36.42 -7.913,36.49 -5.86,1.85 -7.767,-22.051 -13.555,-20.344 -2.125,3.913 -2.93,19.847 -8.206,19.918 -4.98,-0.57 -5.714,-15.507 -9.816,-23.118 -0.294,7.185 -0.952,23.047 -6.74,24.682 -1.027,-0.07 -1.907,0.142 -1.907,-0.924 0.073,-3.7 1.465,-6.9 1.613,-10.527 0.44,-13.943 -2.418,-25.608 -4.249,-40.048 -0.22,-1.85 -0.807,-4.125 -0.66,-5.548 1.32,-4.767 7.327,-9.176 8.28,-5.62 1.098,8.252 6.226,30.16 13.041,47.659 3.515,-0.071 2.636,-11.737 2.71,-17.712 -0.44,-9.461 -4.835,-18.067 -5.935,-27.244 0.587,-3.77 3.005,-4.41 6.887,-4.552 6.887,-2.845 7.547,49.223 13.63,48.156 5.64,0.996 4.467,-33.361 6.591,-48.94 2.272,-17.711 -6.299,-35.92 -0.145,-36.133 8.791,1.35 14.14,7.326 14.286,14.653 -1.538,19.419 -5.64,29.519 -7.912,49.152"
       id="path971"
       inkscape:connector-curvature="0"
       style="fill:#231f20" />
    <path
       d="m 440.222,89.326 c -2.91,-0.067 -3.187,-5.448 -5.403,-5.515 -0.693,0 -1.317,0.336 -1.04,2.22 2.079,14.325 2.495,25.288 5.335,39.411 0.624,4.238 -1.871,7.802 -5.82,8.878 -1.316,-0.067 -2.908,-1.143 -2.84,-3.16 -0.762,-16.815 -2.77,-32.755 -3.117,-47.753 0,-1.95 0.277,-8.878 3.464,-8.81 3.74,-0.202 8.52,8.877 10.737,12.375 -0.07,0.404 -0.692,2.354 -1.316,2.354 m -20.412,45.442 c -2.73,-2.79 -4.022,-14.296 -9.266,-20.992 0.733,6.141 1.006,10.81 1.006,14.646 0,0.28 -6.106,7.113 -7.4,7.113 -1.436,0 -2.37,-0.349 -2.298,-1.744 0.072,-12.204 -1.437,-26.988 -2.801,-37.17 -0.36,-3.138 -1.436,-7.67 -2.442,-11.297 0,-1.325 0,-2.65 0.072,-3.975 2.298,-1.883 3.59,-5.789 7.327,-6.695 1.795,0.21 1.579,3.068 1.723,5.51 0.144,2.72 1.58,7.601 2.227,10.111 3.304,12.134 6.034,17.365 8.835,28.592 1.078,1.046 1.724,0.42 1.58,-1.116 -1.58,-12.9 -4.166,-25.803 -2.083,-37.448 2.083,-2.929 4.31,-7.183 8.476,-7.114 -0.645,13.948 -0.503,35.01 0.503,49.583 1.006,7.532 -2.658,12.414 -5.46,11.996 m -23.919,-4.603 c -1.436,3 -2.657,6.625 -5.817,7.601 -3.376,1.046 -3.376,-5.02 -4.957,-8.228 -2.371,-4.882 -4.956,-9.554 -7.686,-13.6 -0.286,5.79 -0.431,10.67 -0.286,16.738 -2.658,2.58 -4.957,6.695 -8.117,7.392 -1.078,0.28 -3.305,0.836 -3.305,-1.605 0,-5.996 2.155,-9.135 2.37,-14.295 0.145,-3.347 0.36,-8.508 0.288,-11.438 -0.36,-11.715 -1.436,-19.177 -2.802,-30.127 -0.502,-4.114 2.874,-5.508 5.316,-6.972 0.79,-0.419 2.729,-2.302 3.232,0.557 -0.287,19.04 6.536,34.59 12.283,46.933 0.718,1.605 3.017,1.744 2.8,-0.418 a 92.06,92.06 0 0 0 -0.645,-5.37 c -2.011,-14.714 -1.58,-25.872 -4.813,-39.68 -0.215,-4.812 5.675,-10.112 8.476,-14.785 0.719,-0.975 2.156,-1.046 1.867,0.767 -0.43,2.162 -1.292,7.044 -1.292,10.601 0,16.737 0.287,32.845 3.16,49.444 0.503,2.3 0.432,3.556 -0.072,6.485 M 121.382,141.47 c 0.215,1.886 -3.954,3.142 -6.47,3.003 -2.66,-2.513 -1.799,-5.236 -2.373,-9.983 -1.726,-12.704 -4.458,-25.898 -12.079,-37.067 2.23,13.962 3.812,28.83 6.687,41.883 0.574,2.933 -1.295,4.259 -4.602,4.189 -4.314,-0.07 -5.032,-6.143 -4.96,-10.261 0,-2.583 -0.288,-5.794 -0.217,-7.82 0,-1.395 0.217,-7.328 -0.934,-8.095 -0.144,1.256 0.504,2.582 -0.935,2.582 -9.922,-0.14 -13.158,-1.885 -21.21,-2.234 -3.74,-0.14 -7.909,0.978 -9.852,-1.605 -1.365,-1.885 -0.43,-3.071 1.727,-3.84 4.745,-1.605 12.007,-3.071 19.988,-3.211 0.503,-1.535 1.006,-3.978 0.863,-5.515 -1.008,-8.097 -3.092,-17.59 -11.073,-18.428 -5.68,-0.698 -7.045,0.839 -11.216,4.328 -6.615,5.514 -8.485,17.45 -8.916,22.058 -1.222,13.334 -2.085,33.717 11.288,37.416 4.387,1.187 5.465,0.14 7.982,-1.256 0.36,-2.164 -0.073,-2.234 -0.504,-4.05 -0.575,-2.163 0.79,-3.28 3.093,-3.838 3.162,-0.768 4.671,5.584 4.671,7.469 -4.026,6.422 -14.235,6.562 -20.13,4.258 C 40.783,142.936 43.155,120.18 44.953,103.636 48.188,87.511 54.085,72.852 71.484,70.06 c 6.903,-1.606 16.538,6.003 17.904,10.33 2.66,8.168 3.522,13.962 3.45,22.828 0.216,5.514 -0.862,9.633 4.53,9.214 0.072,-6.772 -1.653,-17.102 -1.653,-24.572 0.36,-2.722 -0.72,-4.886 2.947,-5.235 4.314,-0.488 3.163,2.234 4.027,5.584 1.15,4.956 2.732,11.797 6.04,16.056 1.221,-5.795 1.94,-12.705 4.96,-18.64 1.295,-2.72 2.66,-4.117 4.602,-5.024 0.574,-0.21 2.444,0 2.156,0.837 -5.823,15.218 -3.954,32.32 -1.365,47.956 0.864,4.328 0.79,7.4 2.3,12.077 m 28.633,-47.015 c 1.51,13.821 5.752,26.666 9.778,39.3 1.222,1.816 2.302,1.467 2.302,-0.139 0.143,-13.054 -2.302,-28.76 -4.746,-42.232 -0.288,-1.885 -1.007,-4.678 0.287,-5.934 3.235,-3.14 4.962,-4.678 8.63,-8.377 3.45,-1.745 3.521,1.187 3.521,3.142 -0.287,18.148 0.216,35.67 -0.502,53.89 -0.433,5.025 0.791,7.817 -6.328,10.4 -4.673,1.327 -6.256,-6.91 -7.549,-10.4 -1.942,-5.096 -1.942,-8.796 -4.818,-13.125 -1.007,4.748 -0.072,10.332 0.791,15.847 0.503,3.35 -3.235,8.446 -7.262,9.284 -6.327,-4.119 -6.614,-14.59 -10.712,-20.243 -0.72,7.26 2.587,17.241 -4.602,18.22 -2.66,0 -4.17,0.208 -4.746,-2.445 0.575,-18.149 1.294,-35.32 -3.163,-52.913 0,-0.837 0.143,-2.374 0.862,-2.652 2.445,-0.977 4.027,-3.002 6.687,-2.932 3.595,-0.698 1.294,3.56 1.942,7.33 1.366,8.097 3.091,21.78 5.607,29.598 0.432,3.56 4.026,9.074 5.824,13.262 0.648,-13.193 -1.438,-25.479 -3.306,-38.462 -1.15,-7.26 1.725,-9.565 7.477,-13.264 5.033,0.071 2.947,8.657 4.026,12.845"
       id="path973"
       inkscape:connector-curvature="0"
       style="fill:#231f20" />
    <path
       d="m 340.115,181.143 c -0.58,1.09 -3.153,3.253 -4.015,1.438 a 8.708,8.708 0 0 1 -0.575,-2.607 l -1.798,-28.855 c -0.412,-11.409 -0.736,-24.8 -1.116,-35.426 -0.219,-8.644 0,-23.382 0,-30.254 0,-7.369 1.532,-16.012 6.057,-16.083 3.826,0.058 5.89,4.063 6.871,7.651 0.244,0.89 1.472,1.02 1.888,0.195 2.366,-4.683 1.123,-10.298 7.003,-10.113 6.026,0.211 8.657,18.158 11.342,27.413 a 0.9,0.9 0 0 1 0.04,0.301 l -0.003,0.063 c -0.049,1.095 -1.555,1.35 -1.959,0.331 -2.158,-5.453 -4.463,-11.406 -8.653,-16.286 -0.43,-0.5 -1.24,-0.466 -1.604,0.084 -0.438,0.662 -0.798,1.663 -0.84,2.69 -0.074,8.29 0.584,15.728 3.503,20.05 4.208,6.13 6.036,14.64 7.563,21.282 a 0.89,0.89 0 0 1 0.023,0.23 c -0.089,4.015 2.438,14.33 -2.216,15.47 a 0.95,0.95 0 0 1 -0.8,-0.189 c -0.305,-0.237 -0.574,-0.51 -0.933,-0.714 -0.353,-0.2 -0.524,-0.616 -0.48,-1.02 1.11,-10.32 -1.172,-19.934 -4.556,-29.182 -0.355,-0.97 -1.784,-0.854 -1.968,0.164 -0.577,3.202 -0.362,6.003 -0.14,9.683 0.003,0.05 0.008,0.1 0.016,0.146 0.843,4.643 4.008,9.53 1.795,14.256 -0.263,0.563 -0.97,0.74 -1.495,0.405 -4.504,-2.874 -8.634,-13.685 -7.34,-21.27 a 0.86,0.86 0 0 0 0.008,-0.243 c -0.99,-9.11 0.946,-19.46 -2.76,-25.738 -0.545,-0.908 -0.862,-1.956 -1.27,-2.92 -0.4,-0.942 -1.802,-0.777 -1.95,0.235 -1.38,9.321 0.54,21.02 -0.063,28.828 -0.584,8.22 1.386,22.531 3.43,32.096 0.438,2.035 1.112,4.472 1.798,7.097 0,0 3.342,15.485 -4.803,30.792 M 193.004,84.805 c -0.184,-0.664 -0.882,-0.944 -1.352,-0.514 -2.558,2.349 -5.765,13.1 -7.326,21.129 -1.778,9.432 -0.706,17.912 -0.39,27.867 0.033,1.06 1.253,1.37 1.665,0.426 3.313,-7.59 5.673,-14.41 6.708,-25.644 0.325,-5.677 1.725,-19.546 0.695,-23.264 m 4.835,6.084 c -0.062,13.314 0.127,25.84 -0.125,39.583 -0.126,7.159 -1.885,15.033 -7.04,15.033 -2.828,0 -3.52,-2.505 -4.965,-2.577 -1.005,0 -1.319,0 -1.257,1.718 0.1,2.6 0.25,5.47 0.484,8.43 l 0.301,3.819 c 0.582,6.85 1.387,13.8 2.221,18.803 0.047,0.286 -0.009,0.576 -0.159,0.808 -2.865,4.444 -6.635,8.606 -9.573,12.09 -1.068,1.287 -2.827,0.357 -2.702,-0.86 1.108,-9.855 1.225,-20.993 0.896,-31.974 l -0.056,-1.74 c -0.286,-8.362 -0.814,-16.592 -1.343,-24.05 -0.628,-8.59 -0.376,-18.253 0.252,-22.834 1.068,-7.73 0,-23.406 2.39,-25.982 0.55,-1.33 1.284,-3.343 3.43,-3.3 0.098,0.002 0.201,0.02 0.294,0.058 1.852,0.769 2.207,4.697 2.237,8.733 0.008,1.129 1.33,1.429 1.692,0.384 0.36,-1.041 0.78,-2.223 1.334,-3.8 1.257,-3.58 3.96,-8.16 7.667,-8.09 4.714,0.143 4.085,13.745 4.022,15.748 m 18.34,49.659 c -1.228,2.053 -3.683,2.648 -5.592,2.648 -8.048,-0.066 -8.32,-13.837 -9.002,-19.333 -0.886,-11.387 0.273,-27.278 3.683,-36.414 1.636,-4.37 3.818,-6.953 7.092,-7.747 1.432,-0.396 2.796,-0.264 3.41,0.067 3.818,2.383 9.478,16.55 10.092,30.257 0.34,7.945 0.887,22.643 -8.047,26.483 -1.431,0.596 -2.522,0.33 -2.522,-1.257 0,-1.855 0.545,-1.855 0.545,-3.51 0.068,-1.192 0.273,-2.715 0,-4.303 -0.75,-5.43 2.659,-9.932 2.659,-17.745 0.068,-8.672 -1.91,-24.232 -4.637,-23.9 -1.841,0.265 -2.386,4.568 -2.591,5.627 -1.774,9.469 -2.66,17.28 -1.774,26.88 0.546,6.754 3,16.288 6.684,22.247 m 78.554,19.335 c -2.186,-1.061 -4.563,-2.928 -7.025,-5.635 a 0.695,0.695 0 0 1 -0.026,-0.03 l -3.026,-3.71 c -2.354,-3.181 -4.742,-7.111 -7.075,-11.818 -0.714,-1.44 -2.867,-1.08 -3.073,0.514 -0.56,4.346 -1.492,8.189 -2.091,11.754 l -0.468,3.556 c -0.442,5.87 -2.36,12.599 -8.996,8.448 -2.582,-1.587 -4.89,-4.611 -7.224,-8.558 0,0 -0.673,-1.217 -2.104,-3.765 -2.352,-4.191 -4.632,-9.177 -7.37,-14.374 l -0.072,-0.161 c -7.658,-19.648 -15.236,-35.673 -19.581,-59.335 -0.59,-3.221 -1.18,-9.664 -1.696,-13.243 -0.451,-3.668 1.049,-6.158 3.053,-7.734 1.509,-1.188 6.373,-2.038 9.348,-1.524 1.244,0.215 2.202,1.215 2.432,2.456 1.502,8.1 1.475,19.692 3.453,31.857 1.62,10.08 5.006,26.376 9.128,37.47 l 0.027,0.083 c 2.55,8.872 6.14,16.17 11.03,22.646 0.84,1.115 2.61,0.708 2.902,-0.658 0.852,-4.005 0.82,-9.1 0.877,-12.722 0.296,-10.094 -1.032,-17.825 -2.065,-25.914 -1.13,-8.436 -3.545,-20.813 -5.108,-30.082 a 1.612,1.612 0 0 1 0.946,-1.74 c 3.059,-1.343 3.84,-0.967 6.818,-3.471 2.138,-1.79 4.719,-0.431 4.497,1.789 0.81,13.673 -0.515,21.26 2.286,35.293 2.139,10.595 1.99,21.548 8.849,31.14 0.275,0.383 0.614,0.897 1.002,1.489 a 112.364,112.364 0 0 0 4.034,4.07 c 0.889,0.89 1.685,2.2 2.643,3.037 0.655,0.57 1.699,0.2 1.82,-0.66 0.1,-0.712 0.11,-1.466 0.094,-2.231 -0.037,-1.7 -0.34,-3.374 -0.69,-5.037 -0.488,-2.318 -0.096,-5.03 -0.568,-7.307 -0.6,-3.5 -0.382,-12.048 -0.591,-14.673 -0.203,-2.553 -0.387,-5.108 -0.36,-7.668 0.03,-2.488 -0.035,-4.846 -0.362,-7.477 -1.03,-7.62 -2.174,-15.236 -3.263,-22.961 -0.368,-2.792 -2.875,-5.584 -2.433,-8.661 0.026,-0.102 0.058,-0.194 0.094,-0.28 0.019,-0.14 0.077,-0.251 0.193,-0.321 0.778,-0.961 2.738,-0.331 5.465,-0.331 3.17,0 4.794,2.22 5.826,5.155 3.834,11.025 -1.328,14.676 1.622,35.007 0.736,5.44 1.99,16.895 1.032,22.908 -0.576,3.557 0.817,9.459 1.648,14.326 l 0.558,4.763 c 0.004,0.156 0.006,0.307 0.006,0.455 -0.074,4.08 -3.835,5.154 -6.416,3.865 M 319.918,96.25 a 1.668,1.668 0 0 0 -0.356,-1.019 c -2.73,-3.612 -2.873,-10.46 -6.423,-9.797 -4.49,0.961 2.447,27.368 0.624,43.341 a 1.546,1.546 0 0 1 -0.234,0.668 c -1.189,1.85 -3.05,3.766 -5.558,5.58 -1.016,0.735 -2.419,-0.044 -2.389,-1.33 0.22,-9.419 -1.533,-18.435 -1.285,-28.335 0.274,-11.692 0.274,-22.623 2.193,-27.12 0.55,-2.283 3.495,-6.434 7.197,-3.46 3.176,2.23 3.944,4.326 4.494,6.666 0.381,1.621 2.591,1.625 2.96,0 0.262,-1.164 0.555,-2.443 0.877,-4.024 l 0.083,-0.283 c 1.503,-3.808 3.538,-12.38 5.84,-11.56 4.18,1.452 -1.166,11.901 -0.96,15.913 -0.479,16.674 0.55,29.82 1.714,45.524 0.581,8.091 1.162,16.513 1.857,24.87 0.298,3.584 1.97,21.727 3.077,30.064 0.222,0.94 0.312,1.908 0.268,2.876 l -0.01,0.26 c 0.002,0.064 0,0.13 -0.007,0.194 -0.522,4.64 -5.057,6.594 -8.829,8.677 -1.029,0.567 -2.26,-0.233 -2.226,-1.443 0.044,-1.558 0.074,-3.132 0.074,-4.719 l 0.013,-1.745 c 0.042,-9.54 -0.304,-19.567 -0.774,-29.762 z m -4.437,56.155 c -0.22,0.691 -1.012,1.011 -1.282,1.257 a 5.218,5.218 0 0 1 -1.789,1.058 c -4.43,1.404 -6.112,2.377 -6.556,-0.135 l -0.11,-2.979 c 0,-0.24 0.02,-0.495 0.02,-0.76 0.136,-4.222 -1.03,-5.95 3.973,-6.782 2.057,-0.345 7.745,-1.729 8.087,-0.068 0.411,1.937 -0.753,2.836 -1.508,5.604 l -0.005,0.021 z"
       id="path975"
       inkscape:connector-curvature="0"
       style="fill:#231f20" />
  </g>
</svg>
