<?xml version="1.0" encoding="UTF-8" standalone="no"?>
<!DOCTYPE svg PUBLIC "-//W3C//DTD SVG 1.1//EN" "http://www.w3.org/Graphics/SVG/1.1/DTD/svg11.dtd">
<svg xmlns="http://www.w3.org/2000/svg" xmlns:xlink="http://www.w3.org/1999/xlink" version="1.1" viewBox="0 0 1024 512">
  <defs>
    <polygon id="diamond" points="32,0 64,32 32,64 0,32"/>
  </defs>
  <use xlink:href="#diamond" x="-16" y="-16" fill="#17850F" opacity="0.00"/>
  <use xlink:href="#diamond" x="16" y="-16" fill="#007400" opacity="0.00"/>
  <use xlink:href="#diamond" x="48" y="-16" fill="#007600" opacity="0.00"/>
  <use xlink:href="#diamond" x="80" y="-16" fill="#007900" opacity="0.00"/>
  <use xlink:href="#diamond" x="112" y="-16" fill="#007800" opacity="0.00"/>
  <use xlink:href="#diamond" x="144" y="-16" fill="#007900" opacity="0.00"/>
  <use xlink:href="#diamond" x="176" y="-16" fill="#18870F" opacity="0.00"/>
  <use xlink:href="#diamond" x="208" y="-16" fill="#007700" opacity="0.00"/>
  <use xlink:href="#diamond" x="240" y="-16" fill="#198611" opacity="0.00"/>
  <use xlink:href="#diamond" x="272" y="-16" fill="#14830E" opacity="0.00"/>
  <use xlink:href="#diamond" x="304" y="-16" fill="#007200" opacity="0.01"/>
  <use xlink:href="#diamond" x="336" y="-16" fill="#007400" opacity="0.01"/>
  <use xlink:href="#diamond" x="368" y="-16" fill="#1B8713" opacity="0.01"/>
  <use xlink:href="#diamond" x="400" y="-16" fill="#007C00" opacity="0.01"/>
  <use xlink:href="#diamond" x="432" y="-16" fill="#1F8A16" opacity="0.01"/>
  <use xlink:href="#diamond" x="464" y="-16" fill="#198710" opacity="0.01"/>
  <use xlink:href="#diamond" x="496" y="-16" fill="#007400" opacity="0.01"/>
  <use xlink:href="#diamond" x="528" y="-16" fill="#007A02" opacity="0.01"/>
  <use xlink:href="#diamond" x="560" y="-16" fill="#1F8916" opacity="0.01"/>
  <use xlink:href="#diamond" x="592" y="-16" fill="#0D8207" opacity="0.02"/>
  <use xlink:href="#diamond" x="624" y="-16" fill="#0A7F07" opacity="0.01"/>
  <use xlink:href="#diamond" x="656" y="-16" fill="#007400" opacity="0.01"/>
  <use xlink:href="#diamond" x="688" y="-16" fill="#007200" opacity="0.02"/>
  <use xlink:href="#diamond" x="720" y="-16" fill="#13830D" opacity="0.02"/>
  <use xlink:href="#diamond" x="752" y="-16" fill="#007900" opacity="0.02"/>
  <use xlink:href="#diamond" x="784" y="-16" fill="#017D00" opacity="0.02"/>
  <use xlink:href="#diamond" x="816" y="-16" fill="#088004" opacity="0.02"/>
  <use xlink:href="#diamond" x="848" y="-16" fill="#007300" opacity="0.02"/>
  <use xlink:href="#diamond" x="880" y="-16" fill="#007500" opacity="0.02"/>
  <use xlink:href="#diamond" x="912" y="-16" fill="#16850E" opacity="0.02"/>
  <use xlink:href="#diamond" x="944" y="-16" fill="#1D8815" opacity="0.02"/>
  <use xlink:href="#diamond" x="976" y="-16" fill="#007700" opacity="0.02"/>
  <use xlink:href="#diamond" x="1008" y="-16" fill="#088004" opacity="0.03"/>
  <use xlink:href="#diamond" x="-16" y="16" fill="#007800" opacity="0.00"/>
  <use xlink:href="#diamond" x="16" y="16" fill="#007901" opacity="0.00"/>
  <use xlink:href="#diamond" x="48" y="16" fill="#097E07" opacity="0.00"/>
  <use xlink:href="#diamond" x="80" y="16" fill="#12830C" opacity="0.00"/>
  <use xlink:href="#diamond" x="112" y="16" fill="#007B00" opacity="0.00"/>
  <use xlink:href="#diamond" x="144" y="16" fill="#188511" opacity="0.00"/>
  <use xlink:href="#diamond" x="176" y="16" fill="#16850E" opacity="0.00"/>
  <use xlink:href="#diamond" x="208" y="16" fill="#0E8207" opacity="0.00"/>
  <use xlink:href="#diamond" x="240" y="16" fill="#098005" opacity="0.00"/>
  <use xlink:href="#diamond" x="272" y="16" fill="#13830D" opacity="0.00"/>
  <use xlink:href="#diamond" x="304" y="16" fill="#007400" opacity="0.01"/>
  <use xlink:href="#diamond" x="336" y="16" fill="#1C8913" opacity="0.01"/>
  <use xlink:href="#diamond" x="368" y="16" fill="#007900" opacity="0.00"/>
  <use xlink:href="#diamond" x="400" y="16" fill="#007200" opacity="0.01"/>
  <use xlink:href="#diamond" x="432" y="16" fill="#017D01" opacity="0.01"/>
  <use xlink:href="#diamond" x="464" y="16" fill="#1E8A14" opacity="0.01"/>
  <use xlink:href="#diamond" x="496" y="16" fill="#108309" opacity="0.01"/>
  <use xlink:href="#diamond" x="528" y="16" fill="#007700" opacity="0.01"/>
  <use xlink:href="#diamond" x="560" y="16" fill="#007400" opacity="0.01"/>
  <use xlink:href="#diamond" x="592" y="16" fill="#13830D" opacity="0.02"/>
  <use xlink:href="#diamond" x="624" y="16" fill="#007D00" opacity="0.01"/>
  <use xlink:href="#diamond" x="656" y="16" fill="#007400" opacity="0.01"/>
  <use xlink:href="#diamond" x="688" y="16" fill="#077F03" opacity="0.01"/>
  <use xlink:href="#diamond" x="720" y="16" fill="#007600" opacity="0.02"/>
  <use xlink:href="#diamond" x="752" y="16" fill="#0F8208" opacity="0.02"/>
  <use xlink:href="#diamond" x="784" y="16" fill="#007A00" opacity="0.02"/>
  <use xlink:href="#diamond" x="816" y="16" fill="#1F8A15" opacity="0.02"/>
  <use xlink:href="#diamond" x="848" y="16" fill="#007200" opacity="0.02"/>
  <use xlink:href="#diamond" x="880" y="16" fill="#098005" opacity="0.02"/>
  <use xlink:href="#diamond" x="912" y="16" fill="#007900" opacity="0.02"/>
  <use xlink:href="#diamond" x="944" y="16" fill="#047D05" opacity="0.03"/>
  <use xlink:href="#diamond" x="976" y="16" fill="#047D04" opacity="0.02"/>
  <use xlink:href="#diamond" x="1008" y="16" fill="#1E8A14" opacity="0.02"/>
  <use xlink:href="#diamond" x="-16" y="48" fill="#007200" opacity="0.00"/>
  <use xlink:href="#diamond" x="16" y="48" fill="#007200" opacity="0.00"/>
  <use xlink:href="#diamond" x="48" y="48" fill="#007600" opacity="0.00"/>
  <use xlink:href="#diamond" x="80" y="48" fill="#007900" opacity="0.00"/>
  <use xlink:href="#diamond" x="112" y="48" fill="#15850E" opacity="0.00"/>
  <use xlink:href="#diamond" x="144" y="48" fill="#007300" opacity="0.00"/>
  <use xlink:href="#diamond" x="176" y="48" fill="#0C8106" opacity="0.00"/>
  <use xlink:href="#diamond" x="208" y="48" fill="#007B00" opacity="0.00"/>
  <use xlink:href="#diamond" x="240" y="48" fill="#007200" opacity="0.00"/>
  <use xlink:href="#diamond" x="272" y="48" fill="#14840C" opacity="0.00"/>
  <use xlink:href="#diamond" x="304" y="48" fill="#007600" opacity="0.00"/>
  <use xlink:href="#diamond" x="336" y="48" fill="#007A00" opacity="0.00"/>
  <use xlink:href="#diamond" x="368" y="48" fill="#0D8107" opacity="0.01"/>
  <use xlink:href="#diamond" x="400" y="48" fill="#12830C" opacity="0.01"/>
  <use xlink:href="#diamond" x="432" y="48" fill="#007A00" opacity="0.01"/>
  <use xlink:href="#diamond" x="464" y="48" fill="#007400" opacity="0.01"/>
  <use xlink:href="#diamond" x="496" y="48" fill="#007300" opacity="0.01"/>
  <use xlink:href="#diamond" x="528" y="48" fill="#188511" opacity="0.01"/>
  <use xlink:href="#diamond" x="560" y="48" fill="#118309" opacity="0.01"/>
  <use xlink:href="#diamond" x="592" y="48" fill="#007700" opacity="0.02"/>
  <use xlink:href="#diamond" x="624" y="48" fill="#007100" opacity="0.01"/>
  <use xlink:href="#diamond" x="656" y="48" fill="#007B01" opacity="0.02"/>
  <use xlink:href="#diamond" x="688" y="48" fill="#11820C" opacity="0.02"/>
  <use xlink:href="#diamond" x="720" y="48" fill="#007400" opacity="0.02"/>
  <use xlink:href="#diamond" x="752" y="48" fill="#007100" opacity="0.01"/>
  <use xlink:href="#diamond" x="784" y="48" fill="#007500" opacity="0.01"/>
  <use xlink:href="#diamond" x="816" y="48" fill="#007300" opacity="0.01"/>
  <use xlink:href="#diamond" x="848" y="48" fill="#007800" opacity="0.02"/>
  <use xlink:href="#diamond" x="880" y="48" fill="#198512" opacity="0.02"/>
  <use xlink:href="#diamond" x="912" y="48" fill="#1A8811" opacity="0.02"/>
  <use xlink:href="#diamond" x="944" y="48" fill="#0F8208" opacity="0.03"/>
  <use xlink:href="#diamond" x="976" y="48" fill="#007900" opacity="0.02"/>
  <use xlink:href="#diamond" x="1008" y="48" fill="#007900" opacity="0.03"/>
  <use xlink:href="#diamond" x="-16" y="80" fill="#0A7E08" opacity="0.00"/>
  <use xlink:href="#diamond" x="16" y="80" fill="#007600" opacity="0.00"/>
  <use xlink:href="#diamond" x="48" y="80" fill="#1E8A14" opacity="0.00"/>
  <use xlink:href="#diamond" x="80" y="80" fill="#198710" opacity="0.00"/>
  <use xlink:href="#diamond" x="112" y="80" fill="#057F03" opacity="0.00"/>
  <use xlink:href="#diamond" x="144" y="80" fill="#098005" opacity="0.00"/>
  <use xlink:href="#diamond" x="176" y="80" fill="#15850D" opacity="0.00"/>
  <use xlink:href="#diamond" x="208" y="80" fill="#1F8916" opacity="0.01"/>
  <use xlink:href="#diamond" x="240" y="80" fill="#16860E" opacity="0.00"/>
  <use xlink:href="#diamond" x="272" y="80" fill="#007600" opacity="0.01"/>
  <use xlink:href="#diamond" x="304" y="80" fill="#007A00" opacity="0.01"/>
  <use xlink:href="#diamond" x="336" y="80" fill="#007D00" opacity="0.01"/>
  <use xlink:href="#diamond" x="368" y="80" fill="#067F03" opacity="0.02"/>
  <use xlink:href="#diamond" x="400" y="80" fill="#088004" opacity="0.02"/>
  <use xlink:href="#diamond" x="432" y="80" fill="#10820A" opacity="0.02"/>
  <use xlink:href="#diamond" x="464" y="80" fill="#007600" opacity="0.02"/>
  <use xlink:href="#diamond" x="496" y="80" fill="#007600" opacity="0.02"/>
  <use xlink:href="#diamond" x="528" y="80" fill="#007400" opacity="0.02"/>
  <use xlink:href="#diamond" x="560" y="80" fill="#218A19" opacity="0.03"/>
  <use xlink:href="#diamond" x="592" y="80" fill="#13840B" opacity="0.02"/>
  <use xlink:href="#diamond" x="624" y="80" fill="#12820C" opacity="0.02"/>
  <use xlink:href="#diamond" x="656" y="80" fill="#1A8711" opacity="0.03"/>
  <use xlink:href="#diamond" x="688" y="80" fill="#007300" opacity="0.04"/>
  <use xlink:href="#diamond" x="720" y="80" fill="#007600" opacity="0.04"/>
  <use xlink:href="#diamond" x="752" y="80" fill="#027E01" opacity="0.04"/>
  <use xlink:href="#diamond" x="784" y="80" fill="#14840C" opacity="0.03"/>
  <use xlink:href="#diamond" x="816" y="80" fill="#18860F" opacity="0.03"/>
  <use xlink:href="#diamond" x="848" y="80" fill="#007300" opacity="0.03"/>
  <use xlink:href="#diamond" x="880" y="80" fill="#037D03" opacity="0.04"/>
  <use xlink:href="#diamond" x="912" y="80" fill="#067F03" opacity="0.05"/>
  <use xlink:href="#diamond" x="944" y="80" fill="#007500" opacity="0.03"/>
  <use xlink:href="#diamond" x="976" y="80" fill="#007300" opacity="0.06"/>
  <use xlink:href="#diamond" x="1008" y="80" fill="#078004" opacity="0.06"/>
  <use xlink:href="#diamond" x="-16" y="112" fill="#077F03" opacity="0.00"/>
  <use xlink:href="#diamond" x="16" y="112" fill="#007700" opacity="0.00"/>
  <use xlink:href="#diamond" x="48" y="112" fill="#007200" opacity="0.00"/>
  <use xlink:href="#diamond" x="80" y="112" fill="#017D01" opacity="0.00"/>
  <use xlink:href="#diamond" x="112" y="112" fill="#14840C" opacity="0.00"/>
  <use xlink:href="#diamond" x="144" y="112" fill="#007100" opacity="0.00"/>
  <use xlink:href="#diamond" x="176" y="112" fill="#1C8912" opacity="0.01"/>
  <use xlink:href="#diamond" x="208" y="112" fill="#007500" opacity="0.01"/>
  <use xlink:href="#diamond" x="240" y="112" fill="#007700" opacity="0.01"/>
  <use xlink:href="#diamond" x="272" y="112" fill="#017C02" opacity="0.02"/>
  <use xlink:href="#diamond" x="304" y="112" fill="#027C03" opacity="0.02"/>
  <use xlink:href="#diamond" x="336" y="112" fill="#007D00" opacity="0.02"/>
  <use xlink:href="#diamond" x="368" y="112" fill="#1E8914" opacity="0.02"/>
  <use xlink:href="#diamond" x="400" y="112" fill="#007200" opacity="0.03"/>
  <use xlink:href="#diamond" x="432" y="112" fill="#057F03" opacity="0.02"/>
  <use xlink:href="#diamond" x="464" y="112" fill="#007100" opacity="0.02"/>
  <use xlink:href="#diamond" x="496" y="112" fill="#007100" opacity="0.04"/>
  <use xlink:href="#diamond" x="528" y="112" fill="#007400" opacity="0.03"/>
  <use xlink:href="#diamond" x="560" y="112" fill="#007600" opacity="0.04"/>
  <use xlink:href="#diamond" x="592" y="112" fill="#15840F" opacity="0.03"/>
  <use xlink:href="#diamond" x="624" y="112" fill="#1D8913" opacity="0.04"/>
  <use xlink:href="#diamond" x="656" y="112" fill="#007400" opacity="0.04"/>
  <use xlink:href="#diamond" x="688" y="112" fill="#0B8105" opacity="0.05"/>
  <use xlink:href="#diamond" x="720" y="112" fill="#007400" opacity="0.05"/>
  <use xlink:href="#diamond" x="752" y="112" fill="#15850D" opacity="0.04"/>
  <use xlink:href="#diamond" x="784" y="112" fill="#0A7E08" opacity="0.04"/>
  <use xlink:href="#diamond" x="816" y="112" fill="#007400" opacity="0.05"/>
  <use xlink:href="#diamond" x="848" y="112" fill="#007500" opacity="0.09"/>
  <use xlink:href="#diamond" x="880" y="112" fill="#007A00" opacity="0.06"/>
  <use xlink:href="#diamond" x="912" y="112" fill="#027E01" opacity="0.08"/>
  <use xlink:href="#diamond" x="944" y="112" fill="#088004" opacity="0.10"/>
  <use xlink:href="#diamond" x="976" y="112" fill="#007400" opacity="0.05"/>
  <use xlink:href="#diamond" x="1008" y="112" fill="#1B8714" opacity="0.08"/>
  <use xlink:href="#diamond" x="-16" y="144" fill="#027D01" opacity="0.00"/>
  <use xlink:href="#diamond" x="16" y="144" fill="#007700" opacity="0.00"/>
  <use xlink:href="#diamond" x="48" y="144" fill="#0C8106" opacity="0.00"/>
  <use xlink:href="#diamond" x="80" y="144" fill="#14850C" opacity="0.00"/>
  <use xlink:href="#diamond" x="112" y="144" fill="#1C8912" opacity="0.00"/>
  <use xlink:href="#diamond" x="144" y="144" fill="#007500" opacity="0.00"/>
  <use xlink:href="#diamond" x="176" y="144" fill="#007900" opacity="0.01"/>
  <use xlink:href="#diamond" x="208" y="144" fill="#1D8913" opacity="0.01"/>
  <use xlink:href="#diamond" x="240" y="144" fill="#1B8712" opacity="0.02"/>
  <use xlink:href="#diamond" x="272" y="144" fill="#007600" opacity="0.02"/>
  <use xlink:href="#diamond" x="304" y="144" fill="#007D00" opacity="0.02"/>
  <use xlink:href="#diamond" x="336" y="144" fill="#16860E" opacity="0.03"/>
  <use xlink:href="#diamond" x="368" y="144" fill="#13840B" opacity="0.02"/>
  <use xlink:href="#diamond" x="400" y="144" fill="#17860F" opacity="0.03"/>
  <use xlink:href="#diamond" x="432" y="144" fill="#007A00" opacity="0.04"/>
  <use xlink:href="#diamond" x="464" y="144" fill="#007200" opacity="0.05"/>
  <use xlink:href="#diamond" x="496" y="144" fill="#007800" opacity="0.06"/>
  <use xlink:href="#diamond" x="528" y="144" fill="#007A01" opacity="0.05"/>
  <use xlink:href="#diamond" x="560" y="144" fill="#007B00" opacity="0.06"/>
  <use xlink:href="#diamond" x="592" y="144" fill="#12820C" opacity="0.04"/>
  <use xlink:href="#diamond" x="624" y="144" fill="#007100" opacity="0.05"/>
  <use xlink:href="#diamond" x="656" y="144" fill="#0C8107" opacity="0.06"/>
  <use xlink:href="#diamond" x="688" y="144" fill="#007100" opacity="0.06"/>
  <use xlink:href="#diamond" x="720" y="144" fill="#007100" opacity="0.10"/>
  <use xlink:href="#diamond" x="752" y="144" fill="#007800" opacity="0.08"/>
  <use xlink:href="#diamond" x="784" y="144" fill="#0A8105" opacity="0.10"/>
  <use xlink:href="#diamond" x="816" y="144" fill="#007B02" opacity="0.08"/>
  <use xlink:href="#diamond" x="848" y="144" fill="#0F800B" opacity="0.09"/>
  <use xlink:href="#diamond" x="880" y="144" fill="#007B00" opacity="0.07"/>
  <use xlink:href="#diamond" x="912" y="144" fill="#12820D" opacity="0.09"/>
  <use xlink:href="#diamond" x="944" y="144" fill="#1B8713" opacity="0.10"/>
  <use xlink:href="#diamond" x="976" y="144" fill="#1B8713" opacity="0.12"/>
  <use xlink:href="#diamond" x="1008" y="144" fill="#007900" opacity="0.14"/>
  <use xlink:href="#diamond" x="-16" y="176" fill="#0A8005" opacity="0.00"/>
  <use xlink:href="#diamond" x="16" y="176" fill="#0C7F09" opacity="0.00"/>
  <use xlink:href="#diamond" x="48" y="176" fill="#17860F" opacity="0.00"/>
  <use xlink:href="#diamond" x="80" y="176" fill="#007200" opacity="0.00"/>
  <use xlink:href="#diamond" x="112" y="176" fill="#037C04" opacity="0.00"/>
  <use xlink:href="#diamond" x="144" y="176" fill="#17860E" opacity="0.00"/>
  <use xlink:href="#diamond" x="176" y="176" fill="#007600" opacity="0.01"/>
  <use xlink:href="#diamond" x="208" y="176" fill="#007500" opacity="0.01"/>
  <use xlink:href="#diamond" x="240" y="176" fill="#007200" opacity="0.02"/>
  <use xlink:href="#diamond" x="272" y="176" fill="#007C00" opacity="0.02"/>
  <use xlink:href="#diamond" x="304" y="176" fill="#017D01" opacity="0.03"/>
  <use xlink:href="#diamond" x="336" y="176" fill="#007C01" opacity="0.03"/>
  <use xlink:href="#diamond" x="368" y="176" fill="#13840B" opacity="0.04"/>
  <use xlink:href="#diamond" x="400" y="176" fill="#007000" opacity="0.06"/>
  <use xlink:href="#diamond" x="432" y="176" fill="#1E8A14" opacity="0.03"/>
  <use xlink:href="#diamond" x="464" y="176" fill="#0B8006" opacity="0.06"/>
  <use xlink:href="#diamond" x="496" y="176" fill="#0D8107" opacity="0.07"/>
  <use xlink:href="#diamond" x="528" y="176" fill="#007600" opacity="0.06"/>
  <use xlink:href="#diamond" x="560" y="176" fill="#007C00" opacity="0.09"/>
  <use xlink:href="#diamond" x="592" y="176" fill="#007400" opacity="0.05"/>
  <use xlink:href="#diamond" x="624" y="176" fill="#1C8813" opacity="0.07"/>
  <use xlink:href="#diamond" x="656" y="176" fill="#007600" opacity="0.09"/>
  <use xlink:href="#diamond" x="688" y="176" fill="#1C8813" opacity="0.11"/>
  <use xlink:href="#diamond" x="720" y="176" fill="#087E06" opacity="0.09"/>
  <use xlink:href="#diamond" x="752" y="176" fill="#007400" opacity="0.12"/>
  <use xlink:href="#diamond" x="784" y="176" fill="#1F8916" opacity="0.11"/>
  <use xlink:href="#diamond" x="816" y="176" fill="#17860E" opacity="0.10"/>
  <use xlink:href="#diamond" x="848" y="176" fill="#1E8914" opacity="0.14"/>
  <use xlink:href="#diamond" x="880" y="176" fill="#0D8107" opacity="0.08"/>
  <use xlink:href="#diamond" x="912" y="176" fill="#007A00" opacity="0.10"/>
  <use xlink:href="#diamond" x="944" y="176" fill="#11830B" opacity="0.15"/>
  <use xlink:href="#diamond" x="976" y="176" fill="#007400" opacity="0.12"/>
  <use xlink:href="#diamond" x="1008" y="176" fill="#1F8917" opacity="0.15"/>
  <use xlink:href="#diamond" x="-16" y="208" fill="#0B8105" opacity="0.00"/>
  <use xlink:href="#diamond" x="16" y="208" fill="#15850D" opacity="0.00"/>
  <use xlink:href="#diamond" x="48" y="208" fill="#007200" opacity="0.00"/>
  <use xlink:href="#diamond" x="80" y="208" fill="#1C8715" opacity="0.00"/>
  <use xlink:href="#diamond" x="112" y="208" fill="#007900" opacity="0.00"/>
  <use xlink:href="#diamond" x="144" y="208" fill="#16850D" opacity="0.00"/>
  <use xlink:href="#diamond" x="176" y="208" fill="#168310" opacity="0.01"/>
  <use xlink:href="#diamond" x="208" y="208" fill="#007200" opacity="0.02"/>
  <use xlink:href="#diamond" x="240" y="208" fill="#0B7F08" opacity="0.02"/>
  <use xlink:href="#diamond" x="272" y="208" fill="#007C00" opacity="0.04"/>
  <use xlink:href="#diamond" x="304" y="208" fill="#067F03" opacity="0.04"/>
  <use xlink:href="#diamond" x="336" y="208" fill="#0E8207" opacity="0.03"/>
  <use xlink:href="#diamond" x="368" y="208" fill="#007C00" opacity="0.03"/>
  <use xlink:href="#diamond" x="400" y="208" fill="#017D01" opacity="0.05"/>
  <use xlink:href="#diamond" x="432" y="208" fill="#007000" opacity="0.07"/>
  <use xlink:href="#diamond" x="464" y="208" fill="#007700" opacity="0.07"/>
  <use xlink:href="#diamond" x="496" y="208" fill="#108309" opacity="0.06"/>
  <use xlink:href="#diamond" x="528" y="208" fill="#007900" opacity="0.08"/>
  <use xlink:href="#diamond" x="560" y="208" fill="#0D8107" opacity="0.07"/>
  <use xlink:href="#diamond" x="592" y="208" fill="#11820C" opacity="0.08"/>
  <use xlink:href="#diamond" x="624" y="208" fill="#15850C" opacity="0.12"/>
  <use xlink:href="#diamond" x="656" y="208" fill="#007400" opacity="0.09"/>
  <use xlink:href="#diamond" x="688" y="208" fill="#0E8207" opacity="0.12"/>
  <use xlink:href="#diamond" x="720" y="208" fill="#007C00" opacity="0.13"/>
  <use xlink:href="#diamond" x="752" y="208" fill="#198611" opacity="0.12"/>
  <use xlink:href="#diamond" x="784" y="208" fill="#007200" opacity="0.14"/>
  <use xlink:href="#diamond" x="816" y="208" fill="#007C00" opacity="0.16"/>
  <use xlink:href="#diamond" x="848" y="208" fill="#007500" opacity="0.17"/>
  <use xlink:href="#diamond" x="880" y="208" fill="#007C00" opacity="0.12"/>
  <use xlink:href="#diamond" x="912" y="208" fill="#007300" opacity="0.19"/>
  <use xlink:href="#diamond" x="944" y="208" fill="#108309" opacity="0.13"/>
  <use xlink:href="#diamond" x="976" y="208" fill="#088004" opacity="0.19"/>
  <use xlink:href="#diamond" x="1008" y="208" fill="#007200" opacity="0.14"/>
  <use xlink:href="#diamond" x="-16" y="240" fill="#0A8006" opacity="0.00"/>
  <use xlink:href="#diamond" x="16" y="240" fill="#1A8711" opacity="0.00"/>
  <use xlink:href="#diamond" x="48" y="240" fill="#027E01" opacity="0.00"/>
  <use xlink:href="#diamond" x="80" y="240" fill="#027E01" opacity="0.00"/>
  <use xlink:href="#diamond" x="112" y="240" fill="#007800" opacity="0.00"/>
  <use xlink:href="#diamond" x="144" y="240" fill="#007700" opacity="0.01"/>
  <use xlink:href="#diamond" x="176" y="240" fill="#057D05" opacity="0.01"/>
  <use xlink:href="#diamond" x="208" y="240" fill="#0F810A" opacity="0.02"/>
  <use xlink:href="#diamond" x="240" y="240" fill="#007B00" opacity="0.03"/>
  <use xlink:href="#diamond" x="272" y="240" fill="#15850D" opacity="0.03"/>
  <use xlink:href="#diamond" x="304" y="240" fill="#007900" opacity="0.03"/>
  <use xlink:href="#diamond" x="336" y="240" fill="#007200" opacity="0.05"/>
  <use xlink:href="#diamond" x="368" y="240" fill="#037E02" opacity="0.07"/>
  <use xlink:href="#diamond" x="400" y="240" fill="#067F03" opacity="0.06"/>
  <use xlink:href="#diamond" x="432" y="240" fill="#11820C" opacity="0.08"/>
  <use xlink:href="#diamond" x="464" y="240" fill="#208A16" opacity="0.06"/>
  <use xlink:href="#diamond" x="496" y="240" fill="#007C00" opacity="0.10"/>
  <use xlink:href="#diamond" x="528" y="240" fill="#007C00" opacity="0.11"/>
  <use xlink:href="#diamond" x="560" y="240" fill="#188510" opacity="0.09"/>
  <use xlink:href="#diamond" x="592" y="240" fill="#098005" opacity="0.09"/>
  <use xlink:href="#diamond" x="624" y="240" fill="#007100" opacity="0.15"/>
  <use xlink:href="#diamond" x="656" y="240" fill="#007300" opacity="0.15"/>
  <use xlink:href="#diamond" x="688" y="240" fill="#1C8714" opacity="0.11"/>
  <use xlink:href="#diamond" x="720" y="240" fill="#0E800A" opacity="0.18"/>
  <use xlink:href="#diamond" x="752" y="240" fill="#067F03" opacity="0.11"/>
  <use xlink:href="#diamond" x="784" y="240" fill="#007A01" opacity="0.12"/>
  <use xlink:href="#diamond" x="816" y="240" fill="#0F8208" opacity="0.19"/>
  <use xlink:href="#diamond" x="848" y="240" fill="#007600" opacity="0.15"/>
  <use xlink:href="#diamond" x="880" y="240" fill="#0A7F08" opacity="0.20"/>
  <use xlink:href="#diamond" x="912" y="240" fill="#007A00" opacity="0.16"/>
  <use xlink:href="#diamond" x="944" y="240" fill="#098005" opacity="0.13"/>
  <use xlink:href="#diamond" x="976" y="240" fill="#1B8714" opacity="0.15"/>
  <use xlink:href="#diamond" x="1008" y="240" fill="#0C8106" opacity="0.13"/>
  <use xlink:href="#diamond" x="-16" y="272" fill="#007A00" opacity="0.00"/>
  <use xlink:href="#diamond" x="16" y="272" fill="#1B8812" opacity="0.00"/>
  <use xlink:href="#diamond" x="48" y="272" fill="#1C8912" opacity="0.00"/>
  <use xlink:href="#diamond" x="80" y="272" fill="#007B00" opacity="0.00"/>
  <use xlink:href="#diamond" x="112" y="272" fill="#007600" opacity="0.00"/>
  <use xlink:href="#diamond" x="144" y="272" fill="#16850F" opacity="0.01"/>
  <use xlink:href="#diamond" x="176" y="272" fill="#1D8913" opacity="0.01"/>
  <use xlink:href="#diamond" x="208" y="272" fill="#077F03" opacity="0.03"/>
  <use xlink:href="#diamond" x="240" y="272" fill="#007900" opacity="0.03"/>
  <use xlink:href="#diamond" x="272" y="272" fill="#007800" opacity="0.03"/>
  <use xlink:href="#diamond" x="304" y="272" fill="#007400" opacity="0.06"/>
  <use xlink:href="#diamond" x="336" y="272" fill="#007600" opacity="0.07"/>
  <use xlink:href="#diamond" x="368" y="272" fill="#007800" opacity="0.08"/>
  <use xlink:href="#diamond" x="400" y="272" fill="#12830A" opacity="0.05"/>
  <use xlink:href="#diamond" x="432" y="272" fill="#007700" opacity="0.07"/>
  <use xlink:href="#diamond" x="464" y="272" fill="#007800" opacity="0.07"/>
  <use xlink:href="#diamond" x="496" y="272" fill="#007300" opacity="0.12"/>
  <use xlink:href="#diamond" x="528" y="272" fill="#007800" opacity="0.09"/>
  <use xlink:href="#diamond" x="560" y="272" fill="#007A02" opacity="0.13"/>
  <use xlink:href="#diamond" x="592" y="272" fill="#1C8913" opacity="0.11"/>
  <use xlink:href="#diamond" x="624" y="272" fill="#007D00" opacity="0.16"/>
  <use xlink:href="#diamond" x="656" y="272" fill="#007300" opacity="0.15"/>
  <use xlink:href="#diamond" x="688" y="272" fill="#007700" opacity="0.18"/>
  <use xlink:href="#diamond" x="720" y="272" fill="#007100" opacity="0.12"/>
  <use xlink:href="#diamond" x="752" y="272" fill="#15850D" opacity="0.21"/>
  <use xlink:href="#diamond" x="784" y="272" fill="#007700" opacity="0.13"/>
  <use xlink:href="#diamond" x="816" y="272" fill="#1D8913" opacity="0.16"/>
  <use xlink:href="#diamond" x="848" y="272" fill="#11830A" opacity="0.21"/>
  <use xlink:href="#diamond" x="880" y="272" fill="#1D8914" opacity="0.21"/>
  <use xlink:href="#diamond" x="912" y="272" fill="#007A01" opacity="0.20"/>
  <use xlink:href="#diamond" x="944" y="272" fill="#007400" opacity="0.22"/>
  <use xlink:href="#diamond" x="976" y="272" fill="#007700" opacity="0.20"/>
  <use xlink:href="#diamond" x="1008" y="272" fill="#067E04" opacity="0.19"/>
  <use xlink:href="#diamond" x="-16" y="304" fill="#007B00" opacity="0.00"/>
  <use xlink:href="#diamond" x="16" y="304" fill="#007500" opacity="0.00"/>
  <use xlink:href="#diamond" x="48" y="304" fill="#007600" opacity="0.00"/>
  <use xlink:href="#diamond" x="80" y="304" fill="#007B00" opacity="0.00"/>
  <use xlink:href="#diamond" x="112" y="304" fill="#007900" opacity="0.00"/>
  <use xlink:href="#diamond" x="144" y="304" fill="#208A17" opacity="0.01"/>
  <use xlink:href="#diamond" x="176" y="304" fill="#007100" opacity="0.02"/>
  <use xlink:href="#diamond" x="208" y="304" fill="#15850D" opacity="0.02"/>
  <use xlink:href="#diamond" x="240" y="304" fill="#007400" opacity="0.03"/>
  <use xlink:href="#diamond" x="272" y="304" fill="#0E8109" opacity="0.04"/>
  <use xlink:href="#diamond" x="304" y="304" fill="#1C8812" opacity="0.04"/>
  <use xlink:href="#diamond" x="336" y="304" fill="#1B8713" opacity="0.07"/>
  <use xlink:href="#diamond" x="368" y="304" fill="#007900" opacity="0.08"/>
  <use xlink:href="#diamond" x="400" y="304" fill="#007B01" opacity="0.10"/>
  <use xlink:href="#diamond" x="432" y="304" fill="#007000" opacity="0.12"/>
  <use xlink:href="#diamond" x="464" y="304" fill="#1D8913" opacity="0.08"/>
  <use xlink:href="#diamond" x="496" y="304" fill="#007C00" opacity="0.13"/>
  <use xlink:href="#diamond" x="528" y="304" fill="#12830A" opacity="0.14"/>
  <use xlink:href="#diamond" x="560" y="304" fill="#0C8009" opacity="0.15"/>
  <use xlink:href="#diamond" x="592" y="304" fill="#007700" opacity="0.11"/>
  <use xlink:href="#diamond" x="624" y="304" fill="#007D00" opacity="0.11"/>
  <use xlink:href="#diamond" x="656" y="304" fill="#1D8913" opacity="0.17"/>
  <use xlink:href="#diamond" x="688" y="304" fill="#007500" opacity="0.17"/>
  <use xlink:href="#diamond" x="720" y="304" fill="#1A8811" opacity="0.17"/>
  <use xlink:href="#diamond" x="752" y="304" fill="#0B8106" opacity="0.18"/>
  <use xlink:href="#diamond" x="784" y="304" fill="#007C00" opacity="0.16"/>
  <use xlink:href="#diamond" x="816" y="304" fill="#1C8814" opacity="0.15"/>
  <use xlink:href="#diamond" x="848" y="304" fill="#007B00" opacity="0.24"/>
  <use xlink:href="#diamond" x="880" y="304" fill="#1A8612" opacity="0.29"/>
  <use xlink:href="#diamond" x="912" y="304" fill="#1A8811" opacity="0.25"/>
  <use xlink:href="#diamond" x="944" y="304" fill="#007400" opacity="0.32"/>
  <use xlink:href="#diamond" x="976" y="304" fill="#007A00" opacity="0.22"/>
  <use xlink:href="#diamond" x="1008" y="304" fill="#007100" opacity="0.28"/>
  <use xlink:href="#diamond" x="-16" y="336" fill="#007200" opacity="0.00"/>
  <use xlink:href="#diamond" x="16" y="336" fill="#0C8008" opacity="0.00"/>
  <use xlink:href="#diamond" x="48" y="336" fill="#007200" opacity="0.00"/>
  <use xlink:href="#diamond" x="80" y="336" fill="#0D8107" opacity="0.00"/>
  <use xlink:href="#diamond" x="112" y="336" fill="#0D8108" opacity="0.00"/>
  <use xlink:href="#diamond" x="144" y="336" fill="#007B00" opacity="0.01"/>
  <use xlink:href="#diamond" x="176" y="336" fill="#178411" opacity="0.01"/>
  <use xlink:href="#diamond" x="208" y="336" fill="#12830C" opacity="0.02"/>
  <use xlink:href="#diamond" x="240" y="336" fill="#007700" opacity="0.05"/>
  <use xlink:href="#diamond" x="272" y="336" fill="#037E01" opacity="0.05"/>
  <use xlink:href="#diamond" x="304" y="336" fill="#1A8613" opacity="0.04"/>
  <use xlink:href="#diamond" x="336" y="336" fill="#0C8007" opacity="0.07"/>
  <use xlink:href="#diamond" x="368" y="336" fill="#007400" opacity="0.07"/>
  <use xlink:href="#diamond" x="400" y="336" fill="#098005" opacity="0.09"/>
  <use xlink:href="#diamond" x="432" y="336" fill="#1A8614" opacity="0.07"/>
  <use xlink:href="#diamond" x="464" y="336" fill="#1B8714" opacity="0.09"/>
  <use xlink:href="#diamond" x="496" y="336" fill="#0C8106" opacity="0.11"/>
  <use xlink:href="#diamond" x="528" y="336" fill="#007300" opacity="0.11"/>
  <use xlink:href="#diamond" x="560" y="336" fill="#007B00" opacity="0.13"/>
  <use xlink:href="#diamond" x="592" y="336" fill="#097F06" opacity="0.15"/>
  <use xlink:href="#diamond" x="624" y="336" fill="#007400" opacity="0.16"/>
  <use xlink:href="#diamond" x="656" y="336" fill="#1B8613" opacity="0.19"/>
  <use xlink:href="#diamond" x="688" y="336" fill="#007C00" opacity="0.15"/>
  <use xlink:href="#diamond" x="720" y="336" fill="#007800" opacity="0.13"/>
  <use xlink:href="#diamond" x="752" y="336" fill="#178511" opacity="0.25"/>
  <use xlink:href="#diamond" x="784" y="336" fill="#007200" opacity="0.18"/>
  <use xlink:href="#diamond" x="816" y="336" fill="#088004" opacity="0.20"/>
  <use xlink:href="#diamond" x="848" y="336" fill="#037D03" opacity="0.21"/>
  <use xlink:href="#diamond" x="880" y="336" fill="#007400" opacity="0.30"/>
  <use xlink:href="#diamond" x="912" y="336" fill="#15850D" opacity="0.33"/>
  <use xlink:href="#diamond" x="944" y="336" fill="#208A16" opacity="0.31"/>
  <use xlink:href="#diamond" x="976" y="336" fill="#1B8812" opacity="0.35"/>
  <use xlink:href="#diamond" x="1008" y="336" fill="#007800" opacity="0.31"/>
  <use xlink:href="#diamond" x="-16" y="368" fill="#007B00" opacity="0.00"/>
  <use xlink:href="#diamond" x="16" y="368" fill="#1D8913" opacity="0.00"/>
  <use xlink:href="#diamond" x="48" y="368" fill="#13840B" opacity="0.00"/>
  <use xlink:href="#diamond" x="80" y="368" fill="#007B00" opacity="0.00"/>
  <use xlink:href="#diamond" x="112" y="368" fill="#007300" opacity="0.00"/>
  <use xlink:href="#diamond" x="144" y="368" fill="#007500" opacity="0.01"/>
  <use xlink:href="#diamond" x="176" y="368" fill="#007600" opacity="0.02"/>
  <use xlink:href="#diamond" x="208" y="368" fill="#007400" opacity="0.03"/>
  <use xlink:href="#diamond" x="240" y="368" fill="#007A00" opacity="0.04"/>
  <use xlink:href="#diamond" x="272" y="368" fill="#007A00" opacity="0.04"/>
  <use xlink:href="#diamond" x="304" y="368" fill="#007400" opacity="0.06"/>
  <use xlink:href="#diamond" x="336" y="368" fill="#0F8208" opacity="0.10"/>
  <use xlink:href="#diamond" x="368" y="368" fill="#007000" opacity="0.10"/>
  <use xlink:href="#diamond" x="400" y="368" fill="#13820E" opacity="0.07"/>
  <use xlink:href="#diamond" x="432" y="368" fill="#18860F" opacity="0.10"/>
  <use xlink:href="#diamond" x="464" y="368" fill="#1B8812" opacity="0.09"/>
  <use xlink:href="#diamond" x="496" y="368" fill="#0D8107" opacity="0.15"/>
  <use xlink:href="#diamond" x="528" y="368" fill="#1B8812" opacity="0.12"/>
  <use xlink:href="#diamond" x="560" y="368" fill="#007600" opacity="0.16"/>
  <use xlink:href="#diamond" x="592" y="368" fill="#007600" opacity="0.19"/>
  <use xlink:href="#diamond" x="624" y="368" fill="#007A00" opacity="0.14"/>
  <use xlink:href="#diamond" x="656" y="368" fill="#007900" opacity="0.23"/>
  <use xlink:href="#diamond" x="688" y="368" fill="#15850D" opacity="0.24"/>
  <use xlink:href="#diamond" x="720" y="368" fill="#057D05" opacity="0.23"/>
  <use xlink:href="#diamond" x="752" y="368" fill="#007400" opacity="0.24"/>
  <use xlink:href="#diamond" x="784" y="368" fill="#007500" opacity="0.19"/>
  <use xlink:href="#diamond" x="816" y="368" fill="#007700" opacity="0.28"/>
  <use xlink:href="#diamond" x="848" y="368" fill="#007800" opacity="0.24"/>
  <use xlink:href="#diamond" x="880" y="368" fill="#16850E" opacity="0.25"/>
  <use xlink:href="#diamond" x="912" y="368" fill="#007800" opacity="0.33"/>
  <use xlink:href="#diamond" x="944" y="368" fill="#007B00" opacity="0.27"/>
  <use xlink:href="#diamond" x="976" y="368" fill="#007500" opacity="0.28"/>
  <use xlink:href="#diamond" x="1008" y="368" fill="#007600" opacity="0.39"/>
  <use xlink:href="#diamond" x="-16" y="400" fill="#007000" opacity="0.00"/>
  <use xlink:href="#diamond" x="16" y="400" fill="#007D00" opacity="0.00"/>
  <use xlink:href="#diamond" x="48" y="400" fill="#007400" opacity="0.00"/>
  <use xlink:href="#diamond" x="80" y="400" fill="#188511" opacity="0.00"/>
  <use xlink:href="#diamond" x="112" y="400" fill="#1F8916" opacity="0.00"/>
  <use xlink:href="#diamond" x="144" y="400" fill="#15850C" opacity="0.01"/>
  <use xlink:href="#diamond" x="176" y="400" fill="#057F03" opacity="0.02"/>
  <use xlink:href="#diamond" x="208" y="400" fill="#007100" opacity="0.04"/>
  <use xlink:href="#diamond" x="240" y="400" fill="#007100" opacity="0.05"/>
  <use xlink:href="#diamond" x="272" y="400" fill="#007400" opacity="0.04"/>
  <use xlink:href="#diamond" x="304" y="400" fill="#007B01" opacity="0.05"/>
  <use xlink:href="#diamond" x="336" y="400" fill="#11820B" opacity="0.09"/>
  <use xlink:href="#diamond" x="368" y="400" fill="#0D8108" opacity="0.08"/>
  <use xlink:href="#diamond" x="400" y="400" fill="#007800" opacity="0.13"/>
  <use xlink:href="#diamond" x="432" y="400" fill="#007400" opacity="0.14"/>
  <use xlink:href="#diamond" x="464" y="400" fill="#007500" opacity="0.13"/>
  <use xlink:href="#diamond" x="496" y="400" fill="#007300" opacity="0.14"/>
  <use xlink:href="#diamond" x="528" y="400" fill="#1F8A16" opacity="0.17"/>
  <use xlink:href="#diamond" x="560" y="400" fill="#007A00" opacity="0.16"/>
  <use xlink:href="#diamond" x="592" y="400" fill="#007100" opacity="0.15"/>
  <use xlink:href="#diamond" x="624" y="400" fill="#007A00" opacity="0.23"/>
  <use xlink:href="#diamond" x="656" y="400" fill="#1C8813" opacity="0.15"/>
  <use xlink:href="#diamond" x="688" y="400" fill="#007300" opacity="0.21"/>
  <use xlink:href="#diamond" x="720" y="400" fill="#12820C" opacity="0.17"/>
  <use xlink:href="#diamond" x="752" y="400" fill="#0A7E08" opacity="0.21"/>
  <use xlink:href="#diamond" x="784" y="400" fill="#1B8614" opacity="0.25"/>
  <use xlink:href="#diamond" x="816" y="400" fill="#087F05" opacity="0.29"/>
  <use xlink:href="#diamond" x="848" y="400" fill="#067D06" opacity="0.21"/>
  <use xlink:href="#diamond" x="880" y="400" fill="#10810B" opacity="0.39"/>
  <use xlink:href="#diamond" x="912" y="400" fill="#007200" opacity="0.41"/>
  <use xlink:href="#diamond" x="944" y="400" fill="#198612" opacity="0.36"/>
  <use xlink:href="#diamond" x="976" y="400" fill="#007200" opacity="0.43"/>
  <use xlink:href="#diamond" x="1008" y="400" fill="#178410" opacity="0.28"/>
  <use xlink:href="#diamond" x="-16" y="432" fill="#007800" opacity="0.00"/>
  <use xlink:href="#diamond" x="16" y="432" fill="#0D8009" opacity="0.00"/>
  <use xlink:href="#diamond" x="48" y="432" fill="#1B8713" opacity="0.00"/>
  <use xlink:href="#diamond" x="80" y="432" fill="#0C8106" opacity="0.00"/>
  <use xlink:href="#diamond" x="112" y="432" fill="#0B7F08" opacity="0.00"/>
  <use xlink:href="#diamond" x="144" y="432" fill="#007400" opacity="0.02"/>
  <use xlink:href="#diamond" x="176" y="432" fill="#13840B" opacity="0.02"/>
  <use xlink:href="#diamond" x="208" y="432" fill="#007C01" opacity="0.04"/>
  <use xlink:href="#diamond" x="240" y="432" fill="#007900" opacity="0.06"/>
  <use xlink:href="#diamond" x="272" y="432" fill="#007700" opacity="0.05"/>
  <use xlink:href="#diamond" x="304" y="432" fill="#0A7F07" opacity="0.07"/>
  <use xlink:href="#diamond" x="336" y="432" fill="#18870F" opacity="0.11"/>
  <use xlink:href="#diamond" x="368" y="432" fill="#007A01" opacity="0.12"/>
  <use xlink:href="#diamond" x="400" y="432" fill="#10810C" opacity="0.12"/>
  <use xlink:href="#diamond" x="432" y="432" fill="#047E02" opacity="0.18"/>
  <use xlink:href="#diamond" x="464" y="432" fill="#1D8913" opacity="0.11"/>
  <use xlink:href="#diamond" x="496" y="432" fill="#198710" opacity="0.20"/>
  <use xlink:href="#diamond" x="528" y="432" fill="#007800" opacity="0.14"/>
  <use xlink:href="#diamond" x="560" y="432" fill="#1B8813" opacity="0.21"/>
  <use xlink:href="#diamond" x="592" y="432" fill="#007C00" opacity="0.24"/>
  <use xlink:href="#diamond" x="624" y="432" fill="#007A00" opacity="0.15"/>
  <use xlink:href="#diamond" x="656" y="432" fill="#0E8207" opacity="0.16"/>
  <use xlink:href="#diamond" x="688" y="432" fill="#007900" opacity="0.23"/>
  <use xlink:href="#diamond" x="720" y="432" fill="#188610" opacity="0.27"/>
  <use xlink:href="#diamond" x="752" y="432" fill="#037D03" opacity="0.26"/>
  <use xlink:href="#diamond" x="784" y="432" fill="#007600" opacity="0.37"/>
  <use xlink:href="#diamond" x="816" y="432" fill="#007300" opacity="0.27"/>
  <use xlink:href="#diamond" x="848" y="432" fill="#1E8A14" opacity="0.26"/>
  <use xlink:href="#diamond" x="880" y="432" fill="#0E800B" opacity="0.22"/>
  <use xlink:href="#diamond" x="912" y="432" fill="#077F04" opacity="0.27"/>
  <use xlink:href="#diamond" x="944" y="432" fill="#007A00" opacity="0.31"/>
  <use xlink:href="#diamond" x="976" y="432" fill="#007C02" opacity="0.34"/>
  <use xlink:href="#diamond" x="1008" y="432" fill="#12830A" opacity="0.45"/>
  <use xlink:href="#diamond" x="-16" y="464" fill="#007500" opacity="0.00"/>
  <use xlink:href="#diamond" x="16" y="464" fill="#007100" opacity="0.00"/>
  <use xlink:href="#diamond" x="48" y="464" fill="#1C8814" opacity="0.00"/>
  <use xlink:href="#diamond" x="80" y="464" fill="#0C8106" opacity="0.00"/>
  <use xlink:href="#diamond" x="112" y="464" fill="#007100" opacity="0.00"/>
  <use xlink:href="#diamond" x="144" y="464" fill="#15830F" opacity="0.02"/>
  <use xlink:href="#diamond" x="176" y="464" fill="#007300" opacity="0.03"/>
  <use xlink:href="#diamond" x="208" y="464" fill="#007800" opacity="0.04"/>
  <use xlink:href="#diamond" x="240" y="464" fill="#007200" opacity="0.07"/>
  <use xlink:href="#diamond" x="272" y="464" fill="#007400" opacity="0.05"/>
  <use xlink:href="#diamond" x="304" y="464" fill="#007600" opacity="0.07"/>
  <use xlink:href="#diamond" x="336" y="464" fill="#007500" opacity="0.13"/>
  <use xlink:href="#diamond" x="368" y="464" fill="#007C00" opacity="0.11"/>
  <use xlink:href="#diamond" x="400" y="464" fill="#1E8A14" opacity="0.16"/>
  <use xlink:href="#diamond" x="432" y="464" fill="#057F03" opacity="0.12"/>
  <use xlink:href="#diamond" x="464" y="464" fill="#007900" opacity="0.12"/>
  <use xlink:href="#diamond" x="496" y="464" fill="#0A8005" opacity="0.19"/>
  <use xlink:href="#diamond" x="528" y="464" fill="#14840C" opacity="0.23"/>
  <use xlink:href="#diamond" x="560" y="464" fill="#077F04" opacity="0.22"/>
  <use xlink:href="#diamond" x="592" y="464" fill="#007000" opacity="0.28"/>
  <use xlink:href="#diamond" x="624" y="464" fill="#007300" opacity="0.22"/>
  <use xlink:href="#diamond" x="656" y="464" fill="#11830A" opacity="0.20"/>
  <use xlink:href="#diamond" x="688" y="464" fill="#007C00" opacity="0.34"/>
  <use xlink:href="#diamond" x="720" y="464" fill="#13840B" opacity="0.23"/>
  <use xlink:href="#diamond" x="752" y="464" fill="#007B00" opacity="0.37"/>
  <use xlink:href="#diamond" x="784" y="464" fill="#14840C" opacity="0.23"/>
  <use xlink:href="#diamond" x="816" y="464" fill="#007500" opacity="0.24"/>
  <use xlink:href="#diamond" x="848" y="464" fill="#1B8811" opacity="0.24"/>
  <use xlink:href="#diamond" x="880" y="464" fill="#007400" opacity="0.37"/>
  <use xlink:href="#diamond" x="912" y="464" fill="#007B00" opacity="0.47"/>
  <use xlink:href="#diamond" x="944" y="464" fill="#1D8814" opacity="0.49"/>
  <use xlink:href="#diamond" x="976" y="464" fill="#13830C" opacity="0.40"/>
  <use xlink:href="#diamond" x="1008" y="464" fill="#077F04" opacity="0.41"/>
  <use xlink:href="#diamond" x="-16" y="496" fill="#007A01" opacity="0.00"/>
  <use xlink:href="#diamond" x="16" y="496" fill="#007100" opacity="0.00"/>
  <use xlink:href="#diamond" x="48" y="496" fill="#007500" opacity="0.00"/>
  <use xlink:href="#diamond" x="80" y="496" fill="#037E02" opacity="0.00"/>
  <use xlink:href="#diamond" x="112" y="496" fill="#007900" opacity="0.00"/>
  <use xlink:href="#diamond" x="144" y="496" fill="#007C00" opacity="0.01"/>
  <use xlink:href="#diamond" x="176" y="496" fill="#007D01" opacity="0.04"/>
  <use xlink:href="#diamond" x="208" y="496" fill="#0A8005" opacity="0.06"/>
  <use xlink:href="#diamond" x="240" y="496" fill="#047F02" opacity="0.05"/>
  <use xlink:href="#diamond" x="272" y="496" fill="#007700" opacity="0.08"/>
  <use xlink:href="#diamond" x="304" y="496" fill="#007B00" opacity="0.12"/>
  <use xlink:href="#diamond" x="336" y="496" fill="#007900" opacity="0.09"/>
  <use xlink:href="#diamond" x="368" y="496" fill="#007500" opacity="0.11"/>
  <use xlink:href="#diamond" x="400" y="496" fill="#007900" opacity="0.13"/>
  <use xlink:href="#diamond" x="432" y="496" fill="#12830A" opacity="0.14"/>
  <use xlink:href="#diamond" x="464" y="496" fill="#097E08" opacity="0.17"/>
  <use xlink:href="#diamond" x="496" y="496" fill="#007B00" opacity="0.16"/>
  <use xlink:href="#diamond" x="528" y="496" fill="#007A00" opacity="0.14"/>
  <use xlink:href="#diamond" x="560" y="496" fill="#007400" opacity="0.18"/>
  <use xlink:href="#diamond" x="592" y="496" fill="#007200" opacity="0.15"/>
  <use xlink:href="#diamond" x="624" y="496" fill="#1F8A15" opacity="0.30"/>
  <use xlink:href="#diamond" x="656" y="496" fill="#1C8912" opacity="0.18"/>
  <use xlink:href="#diamond" x="688" y="496" fill="#1C8912" opacity="0.19"/>
  <use xlink:href="#diamond" x="720" y="496" fill="#057F03" opacity="0.27"/>
  <use xlink:href="#diamond" x="752" y="496" fill="#13840B" opacity="0.31"/>
  <use xlink:href="#diamond" x="784" y="496" fill="#007500" opacity="0.42"/>
  <use xlink:href="#diamond" x="816" y="496" fill="#1D8815" opacity="0.29"/>
  <use xlink:href="#diamond" x="848" y="496" fill="#017D00" opacity="0.31"/>
  <use xlink:href="#diamond" x="880" y="496" fill="#007400" opacity="0.33"/>
  <use xlink:href="#diamond" x="912" y="496" fill="#007100" opacity="0.35"/>
  <use xlink:href="#diamond" x="944" y="496" fill="#13820D" opacity="0.39"/>
  <use xlink:href="#diamond" x="976" y="496" fill="#15830F" opacity="0.47"/>
  <use xlink:href="#diamond" x="1008" y="496" fill="#007900" opacity="0.38"/>
</svg>
